<?xml version="1.0" encoding="UTF-8" standalone="no"?>
<svg
   xmlns:dc="http://purl.org/dc/elements/1.1/"
   xmlns:cc="http://creativecommons.org/ns#"
   xmlns:rdf="http://www.w3.org/1999/02/22-rdf-syntax-ns#"
   xmlns:svg="http://www.w3.org/2000/svg"
   xmlns="http://www.w3.org/2000/svg"
   xmlns:sodipodi="http://sodipodi.sourceforge.net/DTD/sodipodi-0.dtd"
   xmlns:inkscape="http://www.inkscape.org/namespaces/inkscape"
   width="40mm"
   height="47mm"
   viewBox="0 0 40 47"
   version="1.1"
   id="svg8"
   inkscape:version="1.0.2 (e86c870879, 2021-01-15, custom)"
   sodipodi:docname="dibujo-7.svg">
  <defs
     id="defs2" />
  <sodipodi:namedview
     id="base"
     pagecolor="#ffffff"
     bordercolor="#666666"
     borderopacity="1.0"
     inkscape:pageopacity="0.0"
     inkscape:pageshadow="2"
     inkscape:zoom="0.35"
     inkscape:cx="400"
     inkscape:cy="560"
     inkscape:document-units="mm"
     inkscape:current-layer="layer1"
     inkscape:document-rotation="0"
     showgrid="false"
     inkscape:window-width="1343"
     inkscape:window-height="1030"
     inkscape:window-x="96"
     inkscape:window-y="0"
     inkscape:window-maximized="0" />
  <metadata
     id="metadata5">
    <rdf:RDF>
      <cc:Work
         rdf:about="">
        <dc:format>image/svg+xml</dc:format>
        <dc:type
           rdf:resource="http://purl.org/dc/dcmitype/StillImage" />
        <dc:title></dc:title>
      </cc:Work>
    </rdf:RDF>
  </metadata>
  <g
     inkscape:label="Capa 1"
     inkscape:groupmode="layer"
     id="layer1">
    <g
       id="g24"
       transform="translate(-116.58047,-84.638409)">
      <path
         style="fill:#f6ecd0;stroke-width:0.352778"
         d="m 135.36587,131.16685 c -5.3823,-2.00111 -6.78418,-2.41685 -8.87021,-2.63057 -2.78052,-0.28488 -5.92821,0.30414 -7.99493,1.49605 -1.21068,0.69822 -1.62274,0.79038 -2.02847,0.45365 -1.00287,-0.83231 -0.59272,-2.30363 1.19213,-4.2765 1.96252,-2.16927 2.51488,-3.42661 3.53823,-8.05412 1.35216,-6.1144 1.93287,-12.63497 1.96362,-22.048616 0.0158,-4.850694 0.15607,-9.015998 0.31162,-9.256231 0.15555,-0.240232 0.98413,-0.847784 1.84129,-1.350114 2.0186,-1.182978 2.84722,-0.93415 3.37815,1.014426 1.08122,3.968194 -1.61792,25.333095 -4.4749,35.420765 -0.21273,0.75115 -0.15186,0.7734 1.56089,0.57055 2.30422,-0.2729 4.4178,0.27732 8.34786,2.17316 5.56638,2.68519 8.22689,3.15244 11.84222,2.07977 3.05786,-0.90727 5.26593,-2.19356 7.58008,-4.41573 2.7584,-2.64875 3.33187,-2.68909 3.33187,-0.23441 0,1.78999 -0.0563,1.89153 -2.20486,3.97533 -2.45009,2.37626 -6.11627,4.46649 -9.27887,5.29025 -2.99787,0.78084 -7.63506,0.68489 -10.03572,-0.20766 z m 8.75526,-7.19066 c -0.8993,-1.97376 0.7251,-3.174 4.63711,-3.42626 1.29517,-0.0835 1.59806,0.0141 1.70828,0.55072 0.0766,0.37284 -0.29558,1.10416 -0.86876,1.70719 -2.09219,2.20116 -4.74791,2.76772 -5.47663,1.16835 z"
         id="path38" />
      <path
         style="fill:#f5e3b5;stroke-width:0.352778"
         d="m 137.65893,131.56693 c -0.77611,-0.16645 -2.91924,-0.90622 -4.7625,-1.64394 -3.24755,-1.29975 -3.48802,-1.34161 -7.76111,-1.351 -4.13888,-0.009 -4.52276,0.0499 -6.25008,0.96045 -2.19686,1.15807 -2.09671,1.14775 -2.56937,0.26458 -0.48002,-0.89694 -0.0559,-1.7454 1.96143,-3.92356 1.06015,-1.14469 1.71677,-2.30092 2.20378,-3.88056 1.98359,-6.43399 2.95274,-15.46903 2.84906,-26.560695 l -0.0756,-8.082872 1.02426,-0.816716 c 0.56334,-0.449194 1.47319,-1.002671 2.02189,-1.22995 1.67623,-0.694317 2.1636,0.163505 2.30639,4.059475 0.21477,5.859988 -1.87459,21.507258 -3.98836,29.868908 -0.492,1.94628 -0.89455,3.57954 -0.89455,3.62946 0,0.0499 1.01617,0.0261 2.25816,-0.053 2.66266,-0.16955 3.74681,0.13391 8.67795,2.42902 2.03729,0.94822 4.57729,1.89153 5.64444,2.09624 4.24313,0.81397 9.78911,-1.14039 13.49009,-4.7538 1.10085,-1.07479 2.15647,-1.95417 2.34584,-1.95417 0.52346,0 0.82471,1.30173 0.56982,2.46225 -0.2782,1.26664 -3.61627,4.44137 -6.24282,5.93736 -3.80736,2.16852 -9.38768,3.27621 -12.80876,2.54252 z m 7.08075,-7.26316 c -0.69766,-0.69767 -0.7105,-1.70854 -0.0303,-2.38872 0.51027,-0.51027 3.40291,-1.29025 4.785,-1.29025 1.69454,0 -0.32701,3.00273 -2.59796,3.85892 -1.30559,0.49222 -1.50082,0.47593 -2.1567,-0.17995 z"
         id="path36" />
      <path
         style="fill:#f0d590;stroke-width:0.352778"
         d="m 135.36587,130.70614 c -1.26118,-0.46194 -3.24555,-1.20415 -4.40972,-1.64937 -1.70341,-0.65145 -2.83987,-0.81318 -5.82083,-0.82837 -3.3513,-0.0171 -3.91177,0.077 -5.88339,0.98793 -1.19857,0.55374 -2.3495,0.90156 -2.55763,0.77293 -0.76451,-0.4725 -0.34016,-1.6748 1.16265,-3.29416 2.04427,-2.20279 2.54564,-3.26871 3.55766,-7.56367 1.49958,-6.36411 2.08714,-12.63253 2.12336,-22.653159 l 0.0331,-9.153473 1.36375,-0.988888 c 1.78785,-1.296411 2.92149,-1.30289 3.2806,-0.01875 0.70153,2.508535 -0.34407,15.17731 -2.04539,24.78264 -0.69789,3.94011 -2.12195,10.08383 -2.64657,11.41792 -0.2406,0.61183 -0.11218,0.64189 1.82305,0.42667 2.60207,-0.28939 5.14368,0.34718 8.87327,2.22238 5.21786,2.62349 8.39665,3.08418 12.51148,1.81324 2.56819,-0.79323 5.86456,-2.82352 7.66564,-4.72138 1.58925,-1.67464 2.13566,-1.6523 2.13566,0.0873 0,1.23265 -0.2365,1.59131 -2.38435,3.61597 -5.28948,4.98608 -12.88438,6.90447 -18.78232,4.74421 z m 9.1859,-6.88079 c -0.79429,-1.48413 0.2665,-2.35591 3.30062,-2.71251 1.71109,-0.20111 1.97737,-0.15234 1.97737,0.36218 0,0.32702 -0.43656,1.00147 -0.97014,1.49879 -1.7346,1.61673 -3.69133,2.00352 -4.30785,0.85154 z"
         id="path34" />
      <path
         style="fill:#edc865;stroke-width:0.352778"
         d="m 137.65893,131.19676 c -0.77611,-0.15776 -2.88738,-0.86008 -4.69171,-1.56071 -5.46083,-2.12044 -10.48205,-2.25965 -14.19728,-0.39359 -1.32154,0.66377 -1.78553,0.75864 -2.06475,0.42219 -0.48779,-0.58774 0.30739,-2.06751 1.99293,-3.70874 3.12285,-3.04074 5.13114,-15.21254 4.98317,-30.201944 l -0.0801,-8.113889 1.50005,-1.146527 c 1.83113,-1.399594 2.4074,-1.434603 2.9035,-0.176389 1.13399,2.87603 -1.201,23.306479 -3.75256,32.833789 -0.48441,1.80876 -0.88075,3.49413 -0.88075,3.74526 0,0.34607 0.58574,0.4147 2.41953,0.28349 2.84108,-0.20328 3.83649,0.0671 8.86936,2.40961 2.03729,0.94821 4.57729,1.89152 5.64444,2.09624 4.20706,0.80705 9.57735,-1.06813 13.67267,-4.77417 2.17547,-1.96869 2.17967,-1.97054 2.40781,-1.06156 0.71626,2.85383 -6.45489,8.12664 -12.52525,9.20957 -2.98064,0.53174 -4.13519,0.55731 -6.20106,0.13737 z m 7.49653,-7.07244 c -0.73428,-0.42768 -0.80784,-1.49116 -0.1414,-2.04426 0.64443,-0.53483 4.17399,-1.17975 4.52664,-0.8271 0.45151,0.45151 -0.69735,1.79025 -2.18964,2.55156 -1.58402,0.80811 -1.4026,0.78168 -2.1956,0.3198 z"
         id="path32" />
      <path
         style="fill:#eabd46;stroke-width:0.352778"
         d="m 134.48393,129.93439 c -5.43732,-1.95225 -7.38478,-2.34849 -10.60164,-2.15707 -2.07471,0.12345 -3.36786,0.41849 -4.79654,1.09436 -2.33775,1.10594 -2.4171,1.11408 -2.4171,0.24822 0,-0.37242 0.76558,-1.52336 1.70129,-2.55764 1.94076,-2.14522 2.60707,-3.63402 3.57023,-7.97734 1.3578,-6.12297 1.91783,-12.48607 1.94353,-22.082513 l 0.0245,-9.129337 1.23094,-0.847096 c 0.67703,-0.465902 1.54845,-0.8027 1.93651,-0.74844 2.0641,0.288614 0.19032,21.057636 -3.01333,33.399786 -0.57399,2.21132 -1.04362,4.09924 -1.04362,4.19539 0,0.0962 0.96195,0.0743 2.13767,-0.0486 2.73034,-0.28538 4.56912,0.13832 8.37834,1.93057 4.4664,2.10145 6.62964,2.77846 8.87797,2.77846 3.85848,0 8.32162,-1.89458 11.66413,-4.95138 1.0533,-0.96327 1.95737,-1.75139 2.00905,-1.75139 0.0517,0 0.0939,0.50814 0.0939,1.12922 0,2.53003 -7.07023,7.49688 -11.9544,8.39797 -3.59607,0.66345 -5.9415,0.44118 -9.74143,-0.92316 z m 10.40145,-6.3176 c -0.71063,-0.85625 0.45353,-1.83203 2.52576,-2.11703 0.96703,-0.13301 1.85294,-0.14713 1.96868,-0.0314 0.29543,0.29543 -0.95081,1.60239 -2.08935,2.19115 -1.2262,0.6341 -1.85261,0.62297 -2.40509,-0.0427 z"
         id="path30" />
      <path
         style="fill:#eab62f;stroke-width:0.352778"
         d="m 137.83532,130.96984 c -0.48507,-0.102 -2.54882,-0.84194 -4.58611,-1.6443 -3.63816,-1.43285 -3.78275,-1.45894 -8.11389,-1.46382 -3.90343,-0.004 -4.58025,0.0862 -5.89498,0.78877 -3.01567,1.61164 -3.34669,0.86541 -0.80719,-1.81973 1.99167,-2.1059 2.79485,-4.04905 3.87737,-9.38061 1.24733,-6.14325 1.81363,-13.36732 1.71413,-21.866762 l -0.0928,-7.931689 1.5128,-1.063238 c 1.49355,-1.049701 1.51964,-1.054267 2.04923,-0.358589 1.43108,1.879886 -0.71729,21.639898 -3.58082,32.935238 -0.50971,2.01057 -0.87157,3.82112 -0.80412,4.02345 0.0724,0.21718 1.48793,0.38254 3.45577,0.4037 3.29015,0.0354 3.38779,0.0617 7.56649,2.0388 2.32833,1.10164 5.13623,2.16492 6.23976,2.36286 4.22484,0.7578 9.65481,-1.07158 13.42574,-4.52319 1.62435,-1.4868 2.07004,-1.74184 2.24538,-1.2849 0.7067,1.84163 -5.32772,6.63963 -10.2314,8.13504 -1.86473,0.56866 -6.5458,0.94957 -7.97531,0.64897 z m 7.18313,-7.34643 c -0.38048,-0.9915 0.1746,-1.51818 2.01628,-1.91315 1.01181,-0.217 1.91548,-0.31872 2.00815,-0.22605 0.40172,0.40173 -0.34251,1.27917 -1.65132,1.94687 -1.68686,0.86058 -2.10372,0.89436 -2.37311,0.19233 z"
         id="path28" />
      <path
         style="fill:#e9aa04;stroke-width:0.352778"
         d="m 137.30615,130.59902 c -0.38805,-0.096 -2.37243,-0.82411 -4.40972,-1.6181 -3.5526,-1.38453 -3.87017,-1.44429 -7.76111,-1.46028 -3.68776,-0.0152 -4.24154,0.0698 -6.08542,0.93395 -1.11566,0.52284 -2.02847,0.80233 -2.02847,0.62109 0,-0.18124 0.77417,-1.18439 1.72038,-2.22923 1.96234,-2.16689 2.83262,-4.38496 3.91868,-9.98751 1.0983,-5.66574 1.85456,-15.73623 1.71611,-22.851933 l -0.12323,-6.33307 1.21062,-0.818714 c 0.66584,-0.450293 1.38022,-0.762458 1.5875,-0.6937 0.23125,0.07671 0.41687,1.749748 0.48037,4.329562 0.16469,6.691724 -1.81081,21.237875 -3.99039,29.382235 -0.48158,1.79951 -0.8756,3.4098 -0.8756,3.57843 0,0.16862 1.46844,0.28603 3.2632,0.26092 l 3.26319,-0.0457 4.23334,1.98017 c 4.89946,2.29175 6.34514,2.73407 8.94491,2.73677 4.06711,0.004 8.22111,-1.70637 11.66685,-4.80439 1.57122,-1.41265 1.78962,-1.51613 1.78962,-0.84787 0,1.93727 -6.22421,6.33704 -10.58333,7.48116 -2.16063,0.56709 -6.3766,0.7722 -7.9375,0.38618 z m 7.72804,-7.20551 c -0.28432,-0.46003 0.76674,-1.35512 1.5998,-1.36241 0.30247,-0.003 0.90713,-0.10055 1.34369,-0.21754 1.19181,-0.3194 0.96061,0.41446 -0.39442,1.25191 -1.33199,0.82322 -2.17591,0.93182 -2.54907,0.32804 z"
         id="path26" />
    </g>
  </g>
</svg>
