<?xml version="1.0" encoding="UTF-8" standalone="no"?>
<svg
   xmlns:dc="http://purl.org/dc/elements/1.1/"
   xmlns:cc="http://creativecommons.org/ns#"
   xmlns:rdf="http://www.w3.org/1999/02/22-rdf-syntax-ns#"
   xmlns:svg="http://www.w3.org/2000/svg"
   xmlns="http://www.w3.org/2000/svg"
   xmlns:sodipodi="http://sodipodi.sourceforge.net/DTD/sodipodi-0.dtd"
   xmlns:inkscape="http://www.inkscape.org/namespaces/inkscape"
   width="254mm"
   height="12mm"
   viewBox="0 0 254 12"
   version="1.1"
   id="svg46"
   inkscape:version="1.0.2 (e86c870879, 2021-01-15, custom)"
   sodipodi:docname="dibujo-8.svg">
  <defs
     id="defs40" />
  <sodipodi:namedview
     id="base"
     pagecolor="#ffffff"
     bordercolor="#666666"
     borderopacity="1.0"
     inkscape:pageopacity="0.0"
     inkscape:pageshadow="2"
     inkscape:zoom="0.35"
     inkscape:cx="400"
     inkscape:cy="560"
     inkscape:document-units="mm"
     inkscape:current-layer="layer1"
     inkscape:document-rotation="0"
     showgrid="false"
     inkscape:window-width="1343"
     inkscape:window-height="1030"
     inkscape:window-x="224"
     inkscape:window-y="0"
     inkscape:window-maximized="0" />
  <metadata
     id="metadata43">
    <rdf:RDF>
      <cc:Work
         rdf:about="">
        <dc:format>image/svg+xml</dc:format>
        <dc:type
           rdf:resource="http://purl.org/dc/dcmitype/StillImage" />
        <dc:title></dc:title>
      </cc:Work>
    </rdf:RDF>
  </metadata>
  <g
     inkscape:label="Capa 1"
     inkscape:groupmode="layer"
     id="layer1">
    <g
       id="g62"
       transform="translate(57.452381,-100.0125)"
       style="fill:#c8ab37">
      <path
         style="fill:#c8ab37;stroke-width:0.264583"
         d="m 42.221356,112.14398 c -2.534229,-0.40192 -5.705826,-1.28986 -11.076119,-3.10094 -6.046073,-2.03899 -7.36332,-2.20448 -8.356944,-1.04994 -0.949214,1.10294 -0.816967,1.2814 0.882464,1.19082 l 1.521355,-0.0811 0.08246,0.85386 c 0.06989,0.72369 -0.05113,0.93531 -0.79375,1.38807 -2.194211,1.33778 -4.977252,-0.0175 -4.977252,-2.42389 0,-1.3547 1.250982,-2.77278 2.815111,-3.19112 0.634503,-0.1697 1.153639,-0.38486 1.153639,-0.47812 0,-0.3115 -2.232729,-1.07385 -3.582413,-1.22319 -1.475587,-0.16327 -3.649181,0.57632 -4.519224,1.5377 -0.444135,0.49077 -0.44437,0.55281 -0.0049,1.29675 0.564809,0.95614 0.66289,2.64011 0.203742,3.49804 -0.830429,1.55167 -2.948794,1.97334 -4.10501,0.81713 -0.882095,-0.8821 -1.065528,-1.60641 -0.874808,-3.45431 l 0.15113,-1.46432 -1.1202114,0.12627 c -0.6161193,0.0694 -2.22436,0.62343 -3.5738699,1.23108 -5.19103243,2.3374 -8.8205019,3.185 -11.3851002,2.6588 -1.2171469,-0.24973 -1.6908569,-0.51898 -2.6334456,-1.49682 -1.0522691,-1.09162 -1.2307781,-1.17909 -2.1137329,-1.03581 -0.530418,0.0861 -1.475216,0.51656 -2.099548,0.95663 -1.423442,1.00333 -2.007653,1.00452 -3.144475,0.006 l -0.904031,-0.79375 -19.239231,-0.002 c -12.520256,-8.5e-4 -19.58573,-0.0976 -20.231413,-0.27691 -1.052331,-0.29225 -1.267009,-0.8074 -0.610183,-1.46422 0.95036,-0.95037 2.737796,-1.03541 21.761508,-1.03541 h 18.571639 l 0.887833,-0.8599 c 1.025991,-0.99371 1.706632,-1.07642 2.663577,-0.32369 0.914008,0.71896 2.5227198,1.37305 2.861704,1.16354 0.1505452,-0.093 0.7453444,-0.68081 1.321771,-1.30616 1.8004446,-1.95326 3.7764508,-2.47694 4.4683018,-1.18421 0.3598466,0.67238 -0.017833,1.42358 -1.0005113,1.99002 l -0.7209525,0.41558 0.79375,-0.1598 c 0.4365625,-0.0879 2.3116434,-0.75374 4.16684619,-1.47968 6.36488541,-2.49057 5.81029501,-2.42109 19.51336181,-2.44448 l 12.038542,-0.0206 2.073839,0.72155 c 1.14061,0.39686 2.936705,1.19513 3.991321,1.77393 1.054616,0.57881 1.987389,1.05238 2.072831,1.05238 0.08544,0 0.293875,-0.41974 0.463185,-0.93276 0.169312,-0.51302 0.605848,-1.28693 0.970081,-1.71979 0.593548,-0.7054 0.820462,-0.78703 2.187586,-0.78703 1.25399,0 1.65037,0.11587 2.228133,0.65132 1.295519,1.20065 1.626407,3.13814 0.68191,3.9929 -0.725474,0.65654 -1.355476,0.25826 -1.665573,-1.05296 -0.26729,-1.13022 -0.724384,-1.40448 -1.643102,-0.98589 -0.704824,0.32114 -0.83125,1.04938 -0.341157,1.96513 0.826403,1.54414 3.508312,2.67207 5.987394,2.51812 1.373849,-0.0853 1.784022,-0.22654 2.375239,-0.81775 l 0.714621,-0.71461 h -0.795012 c -1.045996,0 -1.939356,-0.65319 -2.399461,-1.75437 -0.98197,-2.35018 1.916252,-4.40992 4.625864,-3.28756 0.972518,0.40283 2.001546,2.00477 2.26959,3.53319 l 0.176215,1.00481 1.242415,-1.03681 c 3.434426,-2.86606 6.58989,-4.3364 9.33446,-4.34956 1.460183,-0.007 1.9978,0.12796 3.322722,0.83414 l 1.580677,0.84249 1.789028,-0.83719 c 1.632608,-0.76399 1.961012,-0.82615 3.756046,-0.71095 2.375215,0.15243 4.749868,1.22652 7.760988,3.51041 1.990312,1.50963 2.391349,1.56089 2.401734,0.30701 0.0074,-0.8914 0.875776,-2.34413 1.702665,-2.84836 1.748105,-1.06599 4.315304,-0.30957 5.068663,1.49348 0.743604,1.77969 -0.164531,3.03468 -2.195941,3.03468 -1.286584,0 -1.404969,0.28001 -0.500708,1.18427 0.956439,0.95644 2.636623,1.32839 4.381611,0.96998 1.778582,-0.3653 4.172818,-1.89581 4.4035,-2.81493 0.372607,-1.48459 -0.679884,-2.84202 -1.396505,-1.80111 -0.655286,0.95181 -0.907989,1.13888 -1.538481,1.13888 -1.380741,0 -1.456393,-1.77307 -0.129873,-3.04395 1.995776,-1.91208 5.554949,-0.57351 5.554949,2.08915 0,0.36244 0.1034,0.72289 0.22977,0.80099 0.12637,0.0781 1.34676,-0.40374 2.71198,-1.07075 1.36522,-0.66702 3.57407,-1.49152 4.90857,-1.83224 8.33097,-2.127018 21.44067,-1.11607 32.29799,2.49064 3.38343,1.12394 5.25885,1.47309 5.53269,1.03 0.34586,-0.55961 -0.79813,-1.01962 -2.34654,-0.94357 -1.84771,0.0907 -2.33452,-0.2517 -1.71088,-1.20349 0.51143,-0.78054 1.63951,-1.07394 3.1629,-0.82264 1.4925,0.2462 2.29225,0.75511 3.18444,2.02637 0.63864,0.90998 0.84021,1.03395 1.43744,0.88405 0.38205,-0.0959 1.02941,-0.45604 1.43859,-0.80034 1.12547,-0.94702 1.67005,-1.01506 3.3822,-0.42254 2.64326,0.91476 9.51198,1.17101 26.1691,0.97631 10.85412,-0.12688 14.74406,-0.0926 15.0151,0.13237 0.45946,0.38131 0.48741,2.07707 0.0351,2.12848 -0.1819,0.0207 -9.14947,0.0504 -19.92794,0.0661 l -19.59721,0.0286 -1.11263,0.73546 c -1.72558,1.14062 -2.43303,1.17859 -4.12871,0.22161 -0.80379,-0.45363 -1.6408,-0.82478 -1.86002,-0.82478 -0.21923,0 -0.94044,0.4136 -1.6027,0.91912 -2.20091,1.67999 -5.32216,2.14379 -8.85464,1.31577 -0.94589,-0.22172 -3.08901,-1.04281 -4.7625,-1.82465 -1.67349,-0.78183 -3.32855,-1.46187 -3.67792,-1.51119 -0.60931,-0.086 -0.63627,-0.0231 -0.66146,1.54283 -0.0215,1.33687 -0.1411,1.75473 -0.66047,2.30743 -1.67032,1.77751 -3.89862,1.3143 -4.77577,-0.99278 -0.37819,-0.99472 0.012,-2.40459 0.93106,-3.36384 0.83037,-0.86673 0.69721,-1.18356 -0.77923,-1.85401 -1.3678,-0.62112 -3.61363,-0.65055 -5.34418,-0.07 -2.25811,0.75749 -2.37486,0.95436 -0.95303,1.60714 2.19696,1.00863 2.85363,3.25921 1.41935,4.86445 -1.3155,1.47229 -4.54835,1.35706 -4.54835,-0.16211 0,-0.76767 0.79468,-1.26688 1.66785,-1.04773 0.76828,0.19282 1.35443,-0.43194 1.1145,-1.18792 -0.20339,-0.64082 -1.14255,-0.92772 -2.37969,-0.72696 -0.49034,0.0796 -2.65677,0.79502 -4.81429,1.5899 -6.22499,2.29342 -11.25868,3.35708 -15.887147,3.35708 -3.02169,0 -6.442896,-1.31851 -9.863725,-3.80142 l -1.984375,-1.4403 -0.150794,1.03874 c -0.462114,3.18325 -3.605665,4.42746 -7.704471,3.04943 l -2.034429,-0.68399 -1.420447,0.6503 c -1.524815,0.69808 -2.000166,0.66576 -3.93437,-0.26753 -0.936594,-0.45192 -0.993045,-0.44755 -2.645834,0.20467 -2.395238,0.94521 -3.253436,1.07552 -4.737841,0.71942 -0.922067,-0.2212 -1.539607,-0.57949 -2.101164,-1.21906 -1.146501,-1.3058 -1.344481,-2.57012 -0.657096,-4.19631 0.18156,-0.42952 0.05919,-0.39134 -0.690184,0.21537 -4.982326,4.03383 -7.92354,5.4187 -11.891079,5.59893 -1.236927,0.0562 -2.920172,-0.004 -3.740547,-0.13439 z m -2.651979,-4.86558 c -5.8259,-2.97765 -7.726286,-3.68112 -11.189187,-4.14195 -2.429158,-0.32326 -3.340256,-0.23287 -2.262037,0.2244 0.363802,0.15429 3.10224,1.34773 6.085417,2.65209 6.096537,2.66565 9.812753,3.91399 11.863724,3.98524 0.681394,0.0237 -0.347599,-0.59854 -4.497917,-2.71978 z m 61.177053,2.18915 c 1.83952,-0.46237 14.62018,-5.75923 15.06547,-6.24378 0.0728,-0.0792 -0.87974,-0.0827 -2.11666,-0.008 -3.46734,0.20975 -6.97287,1.56793 -14.81667,5.74056 -1.746374,0.92901 -1.887284,1.05663 -1.174853,1.06404 0.445235,0.005 1.814454,-0.24417 3.042713,-0.5529 z m -36.435672,-1.65123 c 0.45839,-0.4893 1.288023,-1.44156 1.843629,-2.11614 0.555607,-0.67459 1.299748,-1.29919 1.653646,-1.38801 0.914252,-0.22947 0.79801,-0.53959 -0.348734,-0.9304 -2.268373,-0.77308 -5.384498,-0.1095 -7.474479,1.59169 l -0.661458,0.53841 0.926123,-0.14665 c 1.428658,-0.22622 2.381168,0.64155 2.381168,2.16931 0,1.46458 0.494356,1.54749 1.680105,0.28179 z m 14.988645,-0.43328 c 0,-1.02743 0.680773,-2.11667 1.322917,-2.11667 0.696338,0 0.100724,-0.53317 -1.507538,-1.34948 -1.495634,-0.75914 -2.050851,-0.89948 -3.558645,-0.89948 -2.368601,0 -2.840623,0.42999 -1.550969,1.41287 0.507907,0.38709 1.723585,1.44794 2.701504,2.35744 2.123316,1.97478 2.592731,2.08256 2.592731,0.59532 z m 48.947917,0.38126 c 0,-0.38401 -0.11452,-0.6063 -0.26458,-0.51355 -0.14552,0.0899 -0.26459,0.39462 -0.26459,0.67707 0,0.28245 0.11907,0.51355 0.26459,0.51355 0.14552,0 0.26458,-0.30468 0.26458,-0.67707 z m 17.16484,0.24712 c 1.27549,-0.2551 0.98879,-0.54586 -0.85477,-0.8669 -0.92488,-0.16106 -3.05576,-0.76794 -4.73528,-1.34862 -4.80304,-1.66061 -11.31021,-3.02902 -11.31021,-2.37846 0,0.42925 0.89205,0.73931 2.95081,1.02565 2.0177,0.28064 3.31539,0.66557 8.95544,2.6564 3.14235,1.10919 3.59471,1.19179 4.99401,0.91193 z M 0.71815333,106.67472 c 1.23692707,-0.50548 3.32052087,-1.281 4.63020837,-1.72339 2.3969662,-0.80965 2.3854516,-0.80855 7.0114583,-0.66579 0.517311,0.016 1.271984,-0.1992 1.70983,-0.48748 l 0.783789,-0.51606 -2.739999,-0.0758 c -3.37067,-0.0933 -5.5276988,0.32134 -11.39204552,2.18968 -2.40287708,0.76554 -4.83085778,1.47461 -5.39551558,1.5757 -1.0762113,0.19268 -1.0290731,0.54533 0.1006078,0.75266 1.240237,0.22762 3.0399513,-0.12931 5.29166663,-1.04949 z"
         id="path76" />
      <path
         style="fill:#c8ab37;stroke-width:0.264583"
         d="m 40.670237,111.63183 c -2.527443,-0.53548 -6.813966,-1.82084 -11.443912,-3.43158 -3.952259,-1.37498 -5.43692,-1.43959 -6.589731,-0.28677 -1.113822,1.11382 -0.881139,1.47087 0.896604,1.37585 1.124003,-0.0601 1.497018,0.0162 1.617721,0.33073 0.216762,0.56487 -0.03108,1.10351 -0.708629,1.54008 -2.085599,1.3438 -4.674137,0.12268 -4.674137,-2.20498 0,-1.41759 0.982703,-2.49617 2.794651,-3.06734 0.791276,-0.24943 1.438683,-0.54227 1.438683,-0.65076 0,-0.10849 -0.68461,-0.46025 -1.521354,-0.78169 -2.766788,-1.06287 -5.785917,-0.64566 -7.279514,1.00595 -0.446497,0.49374 -0.442618,0.56981 0.09051,1.77504 0.708451,1.60157 0.525116,2.77325 -0.579358,3.7026 -2.113103,1.77806 -4.721818,-0.38585 -3.944644,-3.27206 0.161401,-0.5994 0.212899,-1.22017 0.114437,-1.37948 -0.309483,-0.50076 -2.2334083,-0.0464 -5.0042731,1.18173 -5.25820486,2.33066 -9.1450108,3.19633 -11.5091396,2.56333 -0.8360595,-0.22385 -1.5249816,-0.67621 -2.3133923,-1.51901 -1.037328,-1.10889 -1.1973216,-1.18813 -2.102461,-1.04124 -0.538832,0.0874 -1.590112,0.57939 -2.336178,1.09323 -0.74607,0.51383 -1.461167,0.93424 -1.589112,0.93424 -0.127942,0 -0.631801,-0.38695 -1.119685,-0.85989 l -0.887063,-0.8599 -20.067943,-0.0741 c -17.573516,-0.0649 -20.109435,-0.12406 -20.401763,-0.4763 -0.271522,-0.32716 -0.2586,-0.47745 0.06924,-0.80529 0.964354,-0.96436 2.071329,-1.02047 20.718147,-1.05032 10.040938,-0.0161 18.642285,-0.0468 19.114106,-0.0684 0.588312,-0.0269 1.080069,-0.28857 1.565087,-0.83292 0.82554,-0.92653 1.602303,-1.00536 2.551245,-0.25892 0.373959,0.29416 1.171474,0.70826 1.772253,0.92023 l 1.0923244,0.38539 1.175893,-1.27654 c 1.4591321,-1.58402 2.7029331,-2.28933 3.6278291,-2.05719 1.3943621,0.34996 1.054182,2.01272 -0.4911275,2.40057 -0.3530918,0.0886 -0.641985,0.29117 -0.641985,0.45011 0,0.4737 1.6839062,0.0292 5.19395604,-1.3712 6.15348336,-2.45496 6.34872206,-2.48805 14.91437696,-2.52784 4.147344,-0.0193 9.326563,-0.0642 11.509375,-0.1 4.918713,-0.0805 6.816934,0.32876 10.674226,2.30116 1.505199,0.76967 2.835966,1.33807 2.957261,1.26311 0.121293,-0.075 0.362948,-0.58113 0.537009,-1.1248 0.649952,-2.03011 2.097588,-2.78932 4.059441,-2.12896 0.722866,0.24332 1.176539,0.62162 1.521354,1.26862 0.591685,1.1102 0.637173,2.46413 0.09783,2.91175 -0.600564,0.49842 -1.060775,0.16786 -1.415737,-1.01689 -0.375844,-1.25446 -0.63473,-1.4696 -1.505448,-1.25106 -1.582515,0.39719 -1.367612,2.52197 0.371475,3.67284 2.758131,1.82524 5.932112,1.98572 7.639571,0.38624 0.839383,-0.7863 0.746438,-0.99459 -0.443817,-0.99459 -1.107091,0 -1.985806,-0.76518 -2.29544,-1.99887 -0.385096,-1.53433 1.812142,-3.27344 3.690538,-2.92105 1.23503,0.23169 2.425935,1.50987 2.816407,3.0228 0.175403,0.67961 0.365464,1.39072 0.422355,1.58022 0.06673,0.22227 0.738367,-0.16561 1.892376,-1.09287 4.98401,-4.0047 8.637323,-4.991047 11.991047,-3.23743 1.552704,0.81188 2.222061,0.84466 3.339166,0.16351 2.955091,-1.80186 6.696022,-0.96261 11.425139,2.56313 1.221653,0.91079 2.309773,1.65598 2.418046,1.65598 0.108275,0 0.2769,-0.50052 0.374721,-1.11226 0.398473,-2.49191 2.290916,-3.95026 4.391941,-3.38451 1.566518,0.42182 2.666296,2.11014 2.243103,3.4435 -0.235604,0.74232 -1.714841,1.35821 -2.760065,1.14917 -1.009607,-0.20193 -1.092297,0.34039 -0.208557,1.3678 1.209878,1.40657 4.34163,1.64276 6.604624,0.49811 2.369661,-1.19861 3.171653,-2.39351 2.574338,-3.83556 -0.458902,-1.10789 -1.025562,-1.17747 -1.821794,-0.22372 -0.893998,1.07087 -1.961944,1.02312 -2.090193,-0.0934 -0.06343,-0.55227 0.144376,-0.96459 0.833438,-1.65365 0.752586,-0.75259 1.115716,-0.91794 2.015871,-0.91794 1.918626,0 3.18092,1.07727 3.19237,2.72443 0.009,1.34099 0.30435,1.33517 3.35756,-0.0662 5.17858,-2.37688 9.55707,-3.10028 17.1436,-2.83241 7.10033,0.2507 12.69451,1.22482 19.38039,3.37475 4.17517,1.34258 6.41648,1.65925 6.41648,0.90658 0,-0.79532 -1.23423,-1.28 -2.79298,-1.0968 -1.21486,0.14278 -1.48245,0.0982 -1.62386,-0.27028 -0.11032,-0.2875 0.0535,-0.62184 0.47012,-0.95959 0.52648,-0.42679 0.90983,-0.4939 2.17024,-0.3799 1.76411,0.15957 2.5995,0.62469 3.43287,1.91134 0.77813,1.20136 1.78672,1.23132 3.32667,0.0988 1.20868,-0.88887 1.33188,-0.89234 4.01278,-0.11281 2.3623,0.68688 13.68551,0.995 27.60036,0.75105 6.66722,-0.11689 12.36008,-0.12424 12.65078,-0.0163 0.4077,0.15132 0.50956,0.39331 0.44548,1.05833 l -0.0831,0.86217 H 177.4598 157.74834 l -1.51734,0.85989 c -0.83454,0.47294 -1.77742,0.8599 -2.09528,0.8599 -0.31786,0 -1.21083,-0.35719 -1.98437,-0.79375 -1.71308,-0.9668 -2.04315,-0.97969 -3.06525,-0.11965 -1.61961,1.36282 -2.83964,1.79865 -5.36068,1.91501 -3.01607,0.13921 -4.81708,-0.30981 -8.87975,-2.21384 -1.68241,-0.78848 -3.31952,-1.43361 -3.63802,-1.43361 -0.52892,0 -0.5791,0.13246 -0.5791,1.52863 0,1.70937 -0.39839,2.48667 -1.59042,3.10309 -1.0824,0.55973 -1.69132,0.49402 -2.61362,-0.28204 -1.40907,-1.18566 -1.33334,-3.10043 0.18598,-4.7021 l 0.71077,-0.7493 -0.78109,-0.62621 c -1.7056,-1.36738 -4.87015,-1.47536 -7.50207,-0.25598 -1.55347,0.71974 -1.71605,1.05563 -0.61732,1.27538 1.75654,0.35131 3.25001,2.52387 2.71047,3.94297 -0.42639,1.1215 -1.53268,1.79265 -2.9549,1.79265 -1.16558,0 -2.09988,-0.45575 -2.09988,-1.02432 0,-0.46644 0.712,-0.82777 1.63111,-0.82777 1.13925,0 1.61514,-0.57184 1.25949,-1.51343 -0.48772,-1.29127 -1.90659,-1.14195 -7.01665,0.73841 -7.11041,2.61643 -11.62795,3.54696 -16.321867,3.362 -3.464563,-0.13652 -6.065372,-1.11109 -9.449004,-3.54071 -1.296083,-0.93066 -2.40669,-1.6921 -2.468012,-1.6921 -0.06132,0 -0.169233,0.60088 -0.2398,1.33529 -0.149661,1.55756 -1.059802,2.70297 -2.534483,3.18966 -1.266897,0.41812 -3.878027,0.16219 -5.510551,-0.5401 l -1.358951,-0.5846 -1.344139,0.68112 c -0.739277,0.37462 -1.476618,0.68113 -1.638538,0.68113 -0.161919,0 -1.041643,-0.29894 -1.954942,-0.66432 l -1.660544,-0.66432 -1.473017,0.67437 c -2.910298,1.33237 -5.302999,1.1345 -6.792299,-0.56171 -1.590135,-1.81107 -0.75229,-4.83573 1.346528,-4.86102 1.170718,-0.0141 1.911376,0.80447 1.930704,2.13382 0.0299,2.05668 1.277279,1.4781 3.678576,-1.70626 0.413229,-0.54798 1.15959,-1.19102 1.658578,-1.42897 0.498988,-0.23795 0.868564,-0.54869 0.821283,-0.69054 -0.17643,-0.52929 -2.187038,-0.99765 -3.892643,-0.90678 -2.283246,0.12165 -3.427214,0.71541 -7.276042,3.77655 -3.448579,2.74281 -6.320694,4.39248 -8.748223,5.02478 -2.026271,0.52777 -5.249973,0.48368 -8.052818,-0.11014 z m 5.423958,-1.60296 c -0.08994,-0.14552 -0.402545,-0.26458 -0.694687,-0.26458 -0.29214,0 -2.815191,-1.1762 -5.60678,-2.61377 -6.322905,-3.25608 -8.587034,-4.02198 -12.417804,-4.20069 -1.564349,-0.073 -2.844271,-0.0674 -2.844271,0.0123 0,0.0798 0.625078,0.34808 1.389063,0.59628 0.763984,0.2482 3.343016,1.33274 5.731179,2.41009 4.821071,2.17489 8.085116,3.39964 10.47455,3.93029 1.932916,0.42928 4.199586,0.50355 3.96875,0.13005 z m 54.668675,-0.36972 c 1.36473,-0.34886 4.02914,-1.31239 5.92091,-2.14118 1.89177,-0.82878 4.8088,-2.10052 6.48229,-2.82608 1.67349,-0.72556 3.16177,-1.44372 3.30729,-1.59592 0.18371,-0.19213 -0.51049,-0.2335 -2.27109,-0.13532 -3.90933,0.21799 -7.32317,1.49736 -15.243648,5.71271 -3.377702,1.79765 -2.7383,2.147 1.804248,0.98579 z m -87.344717,-1.33446 c 0,-0.35521 -0.119062,-0.71942 -0.264583,-0.80936 -0.154363,-0.0954 -0.264583,0.17364 -0.264583,0.64584 0,0.44515 0.119062,0.80937 0.264583,0.80937 0.145521,0 0.264583,-0.29063 0.264583,-0.64585 z m 66.098039,-0.6785 c -0.0163,-1.1812 0.360754,-1.78155 1.356765,-2.16023 l 0.669258,-0.25445 -0.658383,-0.49918 c -1.340732,-1.01651 -3.542811,-1.90677 -5.000311,-2.02153 -2.45433,-0.19325 -3.735501,0.90976 -2.146773,1.84824 0.441351,0.26071 1.69373,1.30042 2.783065,2.31047 2.340123,2.16979 3.01803,2.34551 2.996379,0.77668 z m 48.948908,0.44596 c 0.0503,-0.26149 0.0205,-0.66049 -0.0662,-0.88666 -0.23346,-0.60837 -0.94529,0.0624 -0.94529,0.8908 0,0.47353 0.12409,0.62457 0.45998,0.55988 0.25299,-0.0487 0.50119,-0.30253 0.55155,-0.56402 z m 17.90507,-0.27871 c 0.48475,-0.35446 0.48437,-0.36707 -0.0156,-0.51544 -0.28187,-0.0837 -1.22686,-0.27729 -2.09999,-0.4303 -0.87312,-0.15301 -2.74508,-0.69207 -4.15991,-1.1979 -4.57384,-1.63523 -11.61645,-3.1078 -11.988,-2.50662 -0.31728,0.51337 1.09723,1.13961 3.3206,1.4701 1.32076,0.19632 3.378,0.70614 4.57164,1.13292 1.19364,0.42679 3.18229,1.14141 4.41922,1.58806 2.4919,0.89981 5.0767,1.09922 5.95201,0.45918 z M 2.04107,106.40666 c 4.5816123,-1.8625 6.6361866,-2.32997 8.844711,-2.0124 1.494028,0.21482 1.900682,0.17778 2.927459,-0.26669 2.008357,-0.86936 1.580695,-1.24245 -1.424191,-1.24245 -3.3409313,0 -6.1125369,0.52839 -10.744854,2.04844 -2.03729167,0.66852 -4.5284469,1.40613 -5.5359009,1.63915 -2.9904134,0.69165 -2.5771713,1.35486 0.7734009,1.24123 1.5295113,-0.0519 2.42810506,-0.29697 5.159375,-1.40728 z m -14.816667,0.18263 c 0,-0.14552 -0.238125,-0.26459 -0.529166,-0.26459 -0.291042,0 -0.529167,0.11907 -0.529167,0.26459 0,0.14552 0.238125,0.26458 0.529167,0.26458 0.291041,0 0.529166,-0.11906 0.529166,-0.26458 z m 167.415227,-0.19844 c 0.0646,-0.19399 -0.11778,-0.33073 -0.4411,-0.33073 -0.32499,0 -0.55121,0.17084 -0.55121,0.41627 0,0.48628 0.82562,0.4151 0.99231,-0.0855 z"
         id="path74" />
      <path
         style="fill:#c8ab37;stroke-width:0.264583"
         d="m 43.580653,111.97822 c -2.632003,-0.3089 -6.785065,-1.3851 -11.751669,-3.04527 -6.407666,-2.14187 -7.57777,-2.35083 -8.812583,-1.5738 -1.461511,0.91969 -1.413873,2.70799 0.05904,2.21647 1.089639,-0.36361 1.848734,-0.23163 1.929876,0.33556 0.113133,0.79079 -0.807424,1.48347 -2.176576,1.63779 -1.095248,0.12345 -1.271551,0.0573 -2.127404,-0.79858 -0.661934,-0.66193 -0.933188,-1.16892 -0.933188,-1.74419 0,-1.17523 1.33944,-2.59315 2.871663,-3.03993 0.701834,-0.20464 1.229379,-0.51641 1.229379,-0.72653 0,-0.52944 -2.925731,-1.52653 -4.53385,-1.54514 -0.990764,-0.0115 -1.735637,0.18136 -2.74983,0.71187 -1.843577,0.96436 -2.07895,1.36741 -1.503371,2.57441 0.669484,1.40393 0.5929,2.93182 -0.185996,3.71072 -1.304272,1.30427 -2.941723,1.12032 -3.738222,-0.41994 -0.432736,-0.83682 -0.425204,-2.28159 0.01902,-3.65092 0.202438,-0.62399 0.189502,-0.62881 -1.3568972,-0.50565 -1.10599,0.0881 -2.3556171,0.48533 -4.2851943,1.36222 -3.686212,1.6752 -6.8076498,2.55156 -9.0881359,2.55156 -2.2265243,0 -3.2691943,-0.40417 -4.4179437,-1.71252 -0.8211211,-0.93521 -0.9503727,-0.9892 -2.0667869,-0.86336 -0.750793,0.0846 -1.614893,0.43872 -2.338221,0.95818 -1.410745,1.01312 -1.933514,1.03192 -2.67924,0.0964 l -0.579959,-0.72761 -20.252858,-0.13229 c -20.93554,-0.13675 -21.396656,-0.16271 -20.570663,-1.15797 0.806243,-0.97146 3.477104,-1.09354 22.311898,-1.01979 l 18.183754,0.0712 1.030605,-0.93109 c 0.566833,-0.5121 1.135237,-0.93058 1.263121,-0.92996 0.127884,5.3e-4 0.7645,0.35406 1.414703,0.78541 2.093384,1.38876 2.4482879,1.34722 4.3858872,-0.51336 1.5429495,-1.48162 1.7863212,-1.62129 2.6942548,-1.54627 0.8659944,0.0716 1.0091076,0.17814 1.0813547,0.80536 0.072276,0.62749 -0.058671,0.77969 -0.9921875,1.15321 -0.5914999,0.23667 -1.0754545,0.53645 -1.0754545,0.66617 0,0.44323 1.5617348,0.23649 3.3614016,-0.44497 9.2154163,-3.4895 7.9787326,-3.30067 21.8992507,-3.34389 11.4282,-0.0355 11.683785,-0.0249 13.500806,0.5626 1.018646,0.32932 2.822911,1.12396 4.009477,1.76586 1.186564,0.64189 2.342645,1.16708 2.569065,1.16708 0.251674,0 0.53604,-0.41509 0.73166,-1.06802 0.514236,-1.71636 1.295524,-2.37156 2.827941,-2.37156 0.902599,0 1.507077,0.16299 1.977855,0.53331 1.306359,1.02758 1.622981,3.70002 0.438365,3.70002 -0.292836,0 -0.599385,-0.20836 -0.681218,-0.46302 -0.553775,-1.72331 -0.699619,-1.91823 -1.435303,-1.91823 -1.582727,0 -2.094,1.72302 -0.923902,3.11361 2.050008,2.43629 7.730189,2.9935 8.866759,0.8698 0.401995,-0.75114 0.35736,-0.80841 -0.630097,-0.80841 -1.604092,0 -2.770545,-2.01455 -2.000051,-3.45423 0.650253,-1.21501 3.110894,-1.70405 4.382333,-0.87098 0.781489,0.51206 1.549289,1.93082 1.803749,3.33303 0.09903,0.5457 0.298937,0.99218 0.444238,0.99218 0.145302,0 0.957877,-0.57729 1.805721,-1.28287 4.74449,-3.94841 8.522493,-4.93663 12.088328,-3.16198 l 1.701514,0.84682 1.516991,-0.78067 c 1.283026,-0.66027 1.82304,-0.78067 3.501367,-0.78067 1.734674,0 2.234075,0.11988 3.96875,0.95274 1.091406,0.524 2.87333,1.6291 3.959831,2.45577 1.0865,0.82667 2.154944,1.46847 2.374317,1.42623 0.240128,-0.0463 0.474266,-0.51851 0.588333,-1.1867 0.256109,-1.50022 0.628534,-2.12623 1.627217,-2.73517 1.349465,-0.82283 2.711714,-0.68458 3.779885,0.38359 1.722168,1.72216 1.010901,3.59833 -1.364149,3.59833 -1.364832,0 -1.512618,0.15128 -1.040226,1.06478 0.602687,1.16546 2.501353,1.94393 4.335571,1.7776 1.392939,-0.1263 3.444656,-0.95818 4.547566,-1.84382 1.08086,-0.86793 1.37595,-2.72502 0.551551,-3.47109 -0.669555,-0.60594 -0.910829,-0.55612 -1.723412,0.35586 -0.802626,0.90082 -1.364117,1.00707 -1.72807,0.32702 -0.603618,-1.12787 1.173803,-2.97285 2.863982,-2.97285 1.478907,0 2.923435,1.56874 2.923435,3.17481 0,0.95705 0.6796,0.86461 3.61515,-0.49174 4.67518,-2.16014 7.97343,-2.76853 14.90568,-2.74948 7.47191,0.0205 14.58604,1.14882 21.3513,3.38625 4.23986,1.40223 6.07822,1.71304 6.3252,1.06942 0.34279,-0.89328 -0.62725,-1.47884 -2.4498,-1.47884 -1.24954,0 -1.67878,-0.0932 -1.67878,-0.36448 0,-0.68821 0.82293,-1.06654 2.24734,-1.03319 1.78129,0.0417 2.76688,0.55551 3.66292,1.90952 0.44495,0.67237 0.91375,1.07565 1.25038,1.07565 0.65847,0 1.88403,-0.61187 2.34988,-1.17318 0.43099,-0.51931 1.66107,-0.52428 3.12987,-0.0126 2.16437,0.75393 8.47486,0.97578 25.06274,0.88109 l 16.13958,-0.0921 v 0.90273 0.90272 l -19.84375,0.0233 -19.84375,0.0233 -1.64491,0.89574 -1.64491,0.89574 -1.9467,-0.96189 c -1.07069,-0.52902 -2.02298,-0.96187 -2.1162,-0.96187 -0.0932,0 -0.57741,0.35816 -1.07598,0.79591 -1.64967,1.44843 -3.19587,1.96674 -5.8588,1.96396 -2.79079,-0.003 -4.51888,-0.45589 -7.9375,-2.08061 -2.75432,-1.309 -4.25321,-1.8383 -4.5996,-1.62422 -0.13437,0.0831 -0.22763,0.87665 -0.20724,1.76356 0.0346,1.50633 -0.0196,1.6632 -0.82337,2.38135 -2.62947,2.34944 -5.56567,-1.1646 -3.21249,-3.84472 0.44802,-0.51027 0.77544,-1.12994 0.7276,-1.37705 -0.0478,-0.2471 -0.62277,-0.73544 -1.27761,-1.08521 -1.66419,-0.88888 -4.72931,-0.77696 -6.94531,0.25359 -0.83675,0.38913 -1.52136,0.8052 -1.52136,0.92462 0,0.11941 0.60135,0.4307 1.33632,0.69174 2.21974,0.78838 3.08643,3.03029 1.73513,4.48836 -1.13578,1.22553 -3.99749,1.26107 -3.99749,0.0496 0,-0.4189 0.20964,-0.53985 1.05498,-0.60865 1.25771,-0.10236 1.72315,-0.43418 1.72315,-1.22845 0,-0.90019 -0.92891,-1.58142 -2.09308,-1.535 -0.55139,0.022 -2.95523,0.74763 -5.34185,1.61254 -6.99097,2.53352 -13.120236,3.75984 -17.015109,3.4043 -2.96723,-0.27085 -6.277787,-1.84521 -10.439789,-4.96471 l -1.155451,-0.86603 0.183674,1.08715 c 0.240747,1.42497 -0.38889,2.76714 -1.671251,3.56253 -1.318237,0.81764 -3.546915,0.79953 -5.920449,-0.0481 l -1.781432,-0.63618 -1.302718,0.61016 c -1.421048,0.66558 -2.045907,0.64419 -4.059031,-0.13894 -1.249011,-0.48588 -1.254398,-0.48559 -2.513542,0.13456 -0.82713,0.40738 -1.916023,0.66583 -3.160707,0.7502 -1.619311,0.10976 -2.033892,0.0453 -2.816101,-0.43817 -0.970682,-0.59992 -1.767991,-1.94496 -1.766342,-2.97979 0.0016,-0.95424 0.919469,-2.24929 1.74036,-2.45532 1.186741,-0.29786 2.076445,0.54407 2.175751,2.05891 0.0699,1.06622 0.158043,1.22997 0.661458,1.22883 0.747178,-0.002 1.711801,-0.84276 2.925112,-2.55046 0.658333,-0.92659 1.304321,-1.49609 2.023377,-1.7838 0.580956,-0.23245 1.056285,-0.54874 1.056285,-0.70286 0,-0.54029 -1.974207,-1.13604 -3.836458,-1.15772 -2.366661,-0.0275 -3.865271,0.67644 -7.14375,3.35583 -5.161468,4.21828 -7.836678,5.52977 -11.90625,5.83689 -0.873125,0.0659 -2.004219,0.0709 -2.513542,0.0111 z m 4.497917,-1.92929 c 0.472456,-0.13697 0.09445,-0.23049 -1.322917,-0.32728 -1.88877,-0.12899 -2.252067,-0.27169 -7.540625,-2.96197 -6.189114,-3.1484 -8.162403,-3.79417 -12.405376,-4.05975 -3.116656,-0.19508 -3.335371,0.1486 -0.68703,1.07957 0.943428,0.33164 3.774739,1.52059 6.2918,2.6421 3.9048,1.73985 7.96843,3.24391 9.975606,3.69227 0.854332,0.19083 4.968317,0.14388 5.688542,-0.0649 z m 54.03468,-0.62959 c 2.98771,-0.95458 14.51537,-6.07139 14.40161,-6.39247 -0.13444,-0.37944 -3.57418,-0.22376 -5.63956,0.25524 -2.24446,0.52052 -6.90246,2.49845 -9.78361,4.15443 -1.289976,0.74142 -2.910959,1.58435 -3.602182,1.87317 -0.691224,0.28882 -1.256771,0.6455 -1.256771,0.79262 0,0.45004 3.667503,0.0241 5.880513,-0.68299 z m -88.534301,-1.35547 c -0.09398,-0.37446 -0.347203,-0.68083 -0.562711,-0.68083 -0.46237,0 -0.508238,0.61104 -0.10274,1.36871 0.392141,0.73272 0.892249,0.21575 0.665451,-0.68788 z M 79.563987,107.632 c 0,-1.16276 0.708945,-2.10105 1.5875,-2.10105 0.862936,0 0.610235,-0.43431 -0.727604,-1.25053 -2.624667,-1.60131 -5.358048,-2.12445 -6.924419,-1.32525 -1.044212,0.53277 -0.927388,0.8883 0.682747,2.07778 0.840573,0.62097 1.948857,1.57785 2.462855,2.12641 0.9851,1.05133 2.335467,1.87596 2.701513,1.64973 0.119573,-0.0739 0.217408,-0.60359 0.217408,-1.17709 z m 48.897743,0.21186 c 0.0633,-0.76356 -0.0143,-0.98999 -0.33926,-0.98999 -0.49144,0 -0.91091,0.95519 -0.72749,1.65659 0.22885,0.87516 0.97768,0.40722 1.06675,-0.6666 z m 17.47319,0.30704 c 1.24652,-0.43454 1.04959,-0.97286 -0.42354,-1.15777 -0.69122,-0.0868 -3.10224,-0.74453 -5.35781,-1.4617 -4.77458,-1.5181 -7.88545,-2.27527 -10.3849,-2.52763 -1.5331,-0.1548 -1.78593,-0.12064 -1.78593,0.24127 0,0.70807 1.22146,1.27451 3.23887,1.50199 1.93868,0.2186 3.38981,0.64284 8.93196,2.61127 3.15537,1.12071 4.36454,1.28648 5.78135,0.79257 z M 0.94954469,106.95963 c 1.25518331,-0.52458 3.35371281,-1.31167 4.66340031,-1.74908 2.1931471,-0.73248 2.5798039,-0.78306 4.894792,-0.64039 2.275117,0.14021 2.61198,0.099 3.551306,-0.43434 1.872853,-1.06341 1.580406,-1.2507 -1.952911,-1.2507 -3.8490258,0 -5.9560326,0.39936 -11.12339533,2.10832 -2.11005207,0.69784 -4.51899077,1.40992 -5.35319817,1.58241 -1.6194775,0.33486 -1.9820599,0.58705 -1.4569096,1.01332 1.0618496,0.86191 3.8217554,0.60553 6.77691579,-0.62954 z m -13.61137869,-0.0758 c 0.240509,-0.38915 -0.618416,-0.95408 -0.948589,-0.6239 -0.155779,0.15578 -0.203237,0.41266 -0.105463,0.57087 0.21431,0.34676 0.85267,0.37888 1.054052,0.053 z m 167.367484,-0.41124 c 0,-0.20969 -0.12427,-0.45807 -0.27617,-0.55194 -0.34162,-0.21114 -1.09507,0.37637 -0.89592,0.6986 0.23695,0.3834 1.17209,0.26639 1.17209,-0.14666 z"
         id="path72" />
      <path
         style="fill:#c8ab37;stroke-width:0.264583"
         d="m 42.257737,111.69745 c -2.337028,-0.39371 -6.724494,-1.6149 -11.175794,-3.11061 -5.382892,-1.80874 -6.782567,-2.03743 -8.148095,-1.33128 -0.798534,0.41294 -1.230376,1.38993 -0.944107,2.13593 0.131492,0.34266 0.405442,0.38865 1.455208,0.24427 1.557287,-0.21418 1.932027,0.1537 1.080198,1.06043 -1.283507,1.36623 -3.650935,0.93852 -4.373192,-0.79009 -0.333867,-0.79906 -0.338457,-1.06103 -0.03146,-1.79546 0.469244,-1.12258 0.962805,-1.50708 2.633863,-2.05184 0.758682,-0.24732 1.379421,-0.60876 1.379421,-0.80318 0,-0.19443 -0.654843,-0.62319 -1.455208,-0.9528 -2.671723,-1.10028 -5.894515,-0.70117 -7.606771,0.94203 -0.715568,0.68671 -0.708813,0.50735 -0.07196,1.91086 0.74222,1.6357 0.681845,2.50242 -0.238421,3.42268 -1.032822,1.03282 -2.394945,1.0694 -3.169195,0.0851 -0.769922,-0.9788 -0.938819,-2.2191 -0.458666,-3.36827 0.384678,-0.92067 0.377661,-0.98125 -0.146127,-1.26157 -0.842978,-0.45115 -2.1567879,-0.11812 -5.8544273,1.484 -7.1751216,3.10884 -11.1670729,3.27141 -13.2507143,0.53962 -0.7168648,-0.93986 -0.8197639,-0.98584 -1.8486094,-0.82602 -0.599218,0.0931 -1.693513,0.58204 -2.431767,1.08656 -0.738256,0.50452 -1.446961,0.91731 -1.574906,0.91731 -0.127942,0 -0.631782,-0.38695 -1.119642,-0.8599 l -0.887019,-0.85989 -20.292243,-0.13229 c -17.528204,-0.11427 -20.292244,-0.18477 -20.292244,-0.51754 0,-0.21967 0.511706,-0.5608 1.190625,-0.79375 1.023282,-0.35109 3.719357,-0.41369 19.182291,-0.44542 9.895417,-0.0203 18.568977,-0.0501 19.274576,-0.0661 1.064038,-0.0242 1.409409,-0.16465 2.024383,-0.82298 0.905047,-0.96885 1.40567,-0.99172 2.661301,-0.12157 0.533471,0.3697 1.403413,0.74252 1.933201,0.82849 0.901682,0.14632 1.0538888,0.062 2.3812081,-1.31943 1.4563355,-1.51569 2.5753987,-2.04875 3.3178459,-1.58042 0.7357772,0.46411 0.4836663,1.19877 -0.6102588,1.77831 -0.5677826,0.30081 -0.9845013,0.66598 -0.9260416,0.8115 0.2071317,0.51562 2.203524,0.0991 4.9845542,-1.03991 3.335356,-1.36607 5.7460965,-2.13469 7.8640834,-2.50731 0.8585173,-0.15104 6.3069338,-0.28951 12.2607728,-0.31162 12.456716,-0.0462 12.811522,2.7e-4 17.354347,2.27742 1.914921,0.95986 2.954279,1.34769 3.158177,1.17847 0.167154,-0.13872 0.44122,-0.71051 0.609037,-1.27063 0.448167,-1.49584 1.169842,-2.03059 2.740422,-2.03059 1.157845,0 1.411777,0.10625 2.103117,0.88 0.650626,0.72818 0.772411,1.07013 0.705903,1.98209 -0.112413,1.54135 -0.867738,1.67823 -1.258239,0.22802 -0.154631,-0.57425 -0.45488,-1.18828 -0.667224,-1.36451 -0.544586,-0.45197 -1.765255,0.003 -2.232628,0.83129 -0.331015,0.58697 -0.315955,0.7801 0.132292,1.69632 0.391776,0.8008 0.876117,1.22431 2.14794,1.87816 2.859741,1.4702 5.190186,1.48585 6.830221,0.0459 1.241597,-1.09013 1.200854,-1.54704 -0.137948,-1.54704 -1.849234,0 -2.938256,-1.76978 -1.927188,-3.13189 1.63068,-2.19684 4.769916,-1.49108 5.593416,1.25751 0.166386,0.55535 0.302522,1.25678 0.302522,1.55873 0,1.03338 0.529307,0.87344 2.711082,-0.8192 2.753368,-2.13608 4.158962,-2.94034 6.124805,-3.50451 1.979655,-0.56813 3.68226,-0.41204 5.420712,0.49698 1.655845,0.86581 2.092106,0.87269 3.673793,0.0579 1.788358,-0.92128 2.911618,-1.05634 4.787834,-0.57568 2.163471,0.55426 3.980849,1.50259 6.483662,3.38327 1.145154,0.86051 2.2094,1.52212 2.364994,1.47025 0.155593,-0.0519 0.423598,-0.71902 0.595566,-1.48258 0.369705,-1.64153 1.417884,-2.86639 2.650882,-3.0977 1.635908,-0.3069 3.551253,1.17376 3.551253,2.7453 0,0.8642 -0.977574,1.49408 -2.33122,1.50207 -1.465061,0.009 -1.693605,0.45432 -0.809421,1.57837 1.694696,2.15446 6.027576,1.92635 8.861219,-0.46651 1.000117,-0.84455 1.300594,-2.04687 0.768625,-3.07558 -0.579924,-1.12145 -1.119439,-1.18987 -1.977215,-0.25072 -1.316456,1.44134 -2.544522,0.37737 -1.336718,-1.1581 0.758024,-0.96367 2.191663,-1.33658 3.322294,-0.86418 1.020746,0.4265 1.578666,1.21887 1.817366,2.58108 0.0947,0.5406 0.27513,1.0465 0.40089,1.12422 0.12576,0.0777 1.63919,-0.50678 3.36319,-1.2989 4.8296,-2.21904 7.18835,-2.63741 14.90849,-2.64436 8.42098,-0.008 14.24103,0.90981 21.89209,3.45073 3.78123,1.25575 5.77889,1.49418 6.07406,0.72496 0.11154,-0.29066 -0.0867,-0.65788 -0.5877,-1.08886 -0.66615,-0.57299 -0.92111,-0.63088 -2.14509,-0.48703 -0.92547,0.10878 -1.45202,0.0614 -1.57768,-0.1419 -0.30435,-0.49245 0.69556,-1.01864 1.93568,-1.01864 1.65836,0 2.84272,0.59214 3.66272,1.83126 0.91357,1.38049 1.88534,1.45152 3.51023,0.25656 1.20771,-0.88816 1.3235,-0.89152 4.01278,-0.11664 2.29291,0.66067 14.33863,0.96925 28.04583,0.71846 6.47568,-0.11848 11.98232,-0.16292 12.23698,-0.0988 0.45435,0.11449 0.59517,0.72509 0.32802,1.42238 -0.11151,0.29106 -2.97693,0.3188 -16.47031,0.15944 -8.98443,-0.1061 -17.88313,-0.12504 -19.7749,-0.0421 -3.15668,0.13844 -3.5535,0.21415 -4.82464,0.92053 -1.73539,0.96437 -2.20097,0.96153 -3.94735,-0.0241 -1.74112,-0.98263 -2.11671,-0.98705 -3.27241,-0.0385 -1.6911,1.38793 -2.62026,1.71873 -5.15352,1.83475 -3.01624,0.13813 -4.81867,-0.31141 -8.87975,-2.21469 -1.68241,-0.78848 -3.37905,-1.4336 -3.77031,-1.4336 -0.69395,0 -0.71139,0.0394 -0.71139,1.60489 0,1.87679 -0.26138,2.47637 -1.31762,3.02258 -1.04063,0.53813 -1.65442,0.50313 -2.47332,-0.14102 -1.30504,-1.02654 -1.16076,-3.4744 0.25965,-4.40508 0.82074,-0.53777 0.78305,-0.9562 -0.15741,-1.74754 -1.02895,-0.86581 -3.13541,-1.35482 -4.85398,-1.12685 -1.6085,0.21338 -3.67396,1.05439 -4.30677,1.75364 -0.49007,0.54152 -0.45999,0.56801 1.01138,0.89054 0.40131,0.088 1.11298,0.50245 1.58149,0.92107 0.70389,0.62892 0.85184,0.95452 0.85184,1.87461 0,1.5465 -0.96272,2.38024 -2.74845,2.38024 -0.79418,0 -1.39648,-0.14544 -1.59553,-0.38528 -0.48089,-0.57944 -0.0945,-0.93763 1.01142,-0.93763 1.17629,0 1.6248,-0.37565 1.6248,-1.36083 0,-0.88307 -0.85418,-1.55101 -1.9771,-1.54605 -0.44057,0.002 -1.81306,0.36654 -3.04999,0.81021 -9.88214,3.54461 -12.13791,4.07126 -17.4625,4.07695 -3.732495,0.004 -3.895349,-0.0196 -6.009677,-0.87133 -1.301662,-0.52435 -3.205559,-1.62315 -4.747347,-2.73986 -2.98363,-2.16102 -3.468566,-2.41717 -3.032088,-1.60161 0.162449,0.30355 0.295362,1.01992 0.295362,1.59194 0,2.89302 -3.350963,4.04177 -7.509539,2.57435 l -1.820997,-0.64257 -1.279062,0.64815 c -1.586709,0.80404 -1.724877,0.80313 -3.594957,-0.0239 l -1.519645,-0.67206 -1.596756,0.71695 c -2.858531,1.28349 -5.285258,1.11139 -6.615176,-0.46913 -1.379812,-1.6398 -0.611796,-4.45994 1.214594,-4.45994 1.178057,0 1.687163,0.61255 1.687163,2.02998 0,1.08781 0.08081,1.28887 0.544674,1.35522 0.721122,0.10315 1.761559,-0.74593 3.048162,-2.48754 0.601816,-0.81464 1.508365,-1.65636 2.120037,-1.96841 0.587745,-0.29984 1.022279,-0.68761 0.965631,-0.86169 -0.177953,-0.54688 -1.53729,-1.04037 -3.24282,-1.17728 -2.815008,-0.22596 -3.677756,0.20689 -9.714172,4.87366 -4.15453,3.21189 -7.053567,4.35074 -10.908871,4.28544 -1.169972,-0.0198 -2.42488,-0.0862 -2.788682,-0.14747 z m 6.151562,-1.54087 c 0.939647,-0.37407 0.414139,-0.58642 -1.375733,-0.55592 -1.8328,0.0312 -1.857007,0.0222 -7.474479,-2.80142 -6.844797,-3.44049 -8.30253,-3.92054 -12.483377,-4.111 -3.863166,-0.17598 -3.98748,0.13748 -0.550048,1.38697 1.30384,0.47394 4.216085,1.6938 6.471658,2.7108 6.47646,2.92014 9.703279,3.83092 12.964583,3.65932 1.091407,-0.0574 2.192735,-0.18736 2.447396,-0.28875 z m 52.229181,-0.24996 c 2.99428,-0.72543 16.30948,-6.40032 16.14272,-6.87997 -0.0576,-0.16573 -1.07721,-0.26108 -2.58277,-0.24154 -3.7154,0.0482 -7.15514,1.31913 -15.296921,5.65197 -2.851687,1.51759 -2.778508,1.46476 -2.54736,1.83877 0.268351,0.4342 1.354455,0.3406 4.284331,-0.36923 z m -86.955743,-1.43285 c 0,-0.76255 -0.557059,-1.50381 -0.88424,-1.17663 -0.226992,0.22699 -0.225288,1.53401 0.0024,1.76159 0.430464,0.43046 0.881943,0.13101 0.881943,-0.58496 z m 66.030377,-0.80058 c 0.01953,-1.34379 0.860631,-2.26379 1.889778,-2.06705 0.891247,0.17037 0.741828,-0.18018 -0.398441,-0.93477 -2.385632,-1.57874 -3.843168,-2.15321 -5.501582,-2.16838 -1.766303,-0.0162 -3.018049,0.47551 -3.018049,1.18543 0,0.24711 0.467535,0.7587 1.038963,1.13685 0.571429,0.37816 1.791819,1.38827 2.711979,2.24469 1.731217,1.61131 2.189065,1.90119 2.863641,1.81302 0.281385,-0.0368 0.401775,-0.38883 0.413711,-1.20979 z m 48.745876,0.97985 c 0.43682,-0.43682 0.39998,-1.7109 -0.0545,-1.88531 -0.73499,-0.28204 -1.62055,1.44496 -1.03909,2.02642 0.27099,0.271 0.74231,0.21018 1.09361,-0.14111 z m 17.89984,-0.51872 c 1.2634,-0.57565 0.62678,-1.10258 -1.70734,-1.41315 -0.80037,-0.1065 -2.58631,-0.59945 -3.96875,-1.09546 -4.01044,-1.43888 -8.15052,-2.46965 -10.64948,-2.65143 -2.55591,-0.18592 -2.80492,-0.0192 -1.5493,1.03735 0.5871,0.49401 1.20538,0.68525 2.64942,0.81946 1.7607,0.16364 3.77884,0.76757 9.28477,2.77846 2.41107,0.88059 4.71339,1.08396 5.94068,0.52477 z M 1.1150283,107.00168 c 5.121791,-2.14173 6.0814559,-2.38419 9.2190517,-2.32925 2.42343,0.0424 3.032178,-0.033 3.919326,-0.48556 0.702876,-0.35859 1.02185,-0.68437 0.964343,-0.98493 -0.07269,-0.37988 -0.488077,-0.46084 -2.694795,-0.52523 -3.3391606,-0.0974 -5.8440371,0.37591 -11.462488,2.16598 -2.4438452,0.77862 -5.0684325,1.56154 -5.8324168,1.73982 -1.4973697,0.34942 -1.8219473,0.89639 -0.79375,1.33763 1.2458276,0.53464 4.1657323,0.13321 6.6807291,-0.91846 z m -13.7583333,-0.40877 c 0,-0.47102 -0.872723,-0.69194 -1.248593,-0.31607 -0.146486,0.14648 -0.182136,0.40259 -0.07922,0.56911 0.263009,0.42555 1.327814,0.22264 1.327814,-0.25304 z m 167.321365,0.28361 c 0.50334,-0.31871 0.16651,-1.08098 -0.47765,-1.08098 -0.61637,0 -0.92322,0.40165 -0.71713,0.93871 0.16616,0.433 0.64549,0.49008 1.19478,0.14227 z"
         id="path70" />
      <path
         style="fill:#c8ab37;stroke-width:0.264583"
         d="m 42.494301,111.59838 c -2.509512,-0.36891 -6.504279,-1.47349 -11.426775,-3.15958 -5.748531,-1.96904 -6.843358,-2.14034 -8.12088,-1.27059 -1.220542,0.83095 -1.64642,1.9723 -0.931106,2.49536 0.283557,0.20733 0.697563,0.30648 0.920022,0.22032 0.222457,-0.0862 0.731888,-0.22274 1.13207,-0.3035 0.606553,-0.1224 0.727605,-0.0558 0.727605,0.40041 0,0.75847 -0.981059,1.37099 -2.195891,1.37099 -0.774385,0 -1.205939,-0.18613 -1.793211,-0.7734 -1.572165,-1.57217 -0.604634,-3.58936 2.137018,-4.45544 1.914557,-0.60481 1.881823,-1.07546 -0.132291,-1.9021 -1.156288,-0.47457 -2.096217,-0.65464 -3.460332,-0.66291 -1.631884,-0.01 -2.03703,0.0908 -3.1491,0.78239 -1.74561,1.08565 -1.944439,1.46503 -1.383869,2.64055 0.500221,1.04898 0.591122,2.55951 0.198205,3.29368 -0.346766,0.64794 -1.707211,1.17349 -2.513706,0.97107 -0.92824,-0.23297 -1.547768,-1.54342 -1.372735,-2.90367 0.342019,-2.65796 0.43797,-2.40555 -0.948314,-2.49461 -1.0188605,-0.0655 -1.7845752,0.15137 -4.101042,1.16129 -6.543593,2.85283 -10.3422186,3.53407 -12.6832651,2.27459 -0.3160157,-0.17001 -0.9323123,-0.74311 -1.3695495,-1.27355 -0.751713,-0.91196 -0.8619331,-0.9569 -2.0255124,-0.82574 -0.792456,0.0893 -1.639004,0.43203 -2.377871,0.96264 -1.40308,1.00762 -1.625328,1.0159 -2.584852,0.0964 l -0.759233,-0.7276 -20.3339,-0.13229 c -11.183644,-0.0728 -20.415193,-0.21367 -20.514552,-0.31313 -0.38377,-0.38416 0.202565,-0.70411 1.921544,-1.04855 1.401011,-0.28072 5.800722,-0.35811 20.358855,-0.35811 h 18.571604 l 0.887867,-0.8599 c 0.488326,-0.47294 1.00126,-0.85939 1.139854,-0.85876 0.138592,5.3e-4 0.783971,0.35405 1.434174,0.7854 2.070878,1.37383 2.4939497,1.33889 4.2060923,-0.34738 0.8199887,-0.8076 1.8172747,-1.59063 2.216195,-1.74008 1.7301553,-0.64819 2.0932192,0.83683 0.3991715,1.6327 -0.5457031,0.25638 -0.9921875,0.6438 -0.9921875,0.86093 0,0.77008 1.8659026,0.40201 5.90319022,-1.16446 6.37464068,-2.47336 6.27070438,-2.45955 19.09993448,-2.53763 12.872051,-0.0783 13.237657,-0.0314 17.763538,2.27826 1.475258,0.75287 2.862257,1.2998 3.082221,1.21539 0.219964,-0.0844 0.545648,-0.60829 0.723739,-1.16418 0.519274,-1.62084 1.212056,-2.20134 2.627127,-2.20134 1.526162,0 2.292297,0.52519 2.686759,1.8418 0.586722,1.95829 -0.434766,2.64685 -1.094666,0.73789 -0.336029,-0.97206 -0.503161,-1.13556 -1.233014,-1.20622 -0.578982,-0.0561 -1.015484,0.0894 -1.389062,0.46302 -1.86662,1.86662 1.27381,4.95645 5.335106,5.24915 2.019919,0.14557 3.123911,-0.19362 3.918677,-1.20401 0.800241,-1.01734 0.669968,-1.38371 -0.492013,-1.38371 -2.009778,0 -2.920982,-2.23301 -1.462694,-3.58451 0.540007,-0.50046 0.989111,-0.64882 1.964023,-0.64882 1.748322,0 2.749328,0.99653 3.201879,3.18758 0.209111,1.01241 0.456692,1.57492 0.69318,1.57492 0.202337,0 0.982189,-0.52118 1.733002,-1.15818 3.249213,-2.75667 6.233239,-4.16835 8.842917,-4.1834 1.379284,-0.008 1.963172,0.14205 3.378674,0.86807 l 1.711232,0.87768 1.653646,-0.84802 c 3.352136,-1.71904 6.946196,-0.77241 11.882874,3.1298 1.710709,1.35224 2.262254,1.36499 2.478799,0.0573 0.262856,-1.58741 0.671476,-2.42421 1.456823,-2.98343 1.990653,-1.41747 4.791493,0.0685 4.501327,2.38811 -0.08537,0.6825 -0.85965,1.05834 -2.180288,1.05834 -1.193679,0 -1.272347,0.0425 -1.272347,0.68759 0,0.9128 1.328338,2.1325 2.735953,2.51219 1.639914,0.44236 3.430283,0.12353 5.357079,-0.954 2.416167,-1.3512 3.118331,-2.96351 1.941931,-4.45906 -0.707782,-0.8998 -1.137492,-0.87911 -2.006865,0.0966 -0.785873,0.88201 -1.276172,1.00412 -1.516552,0.37771 -0.35311,-0.9202 1.245513,-2.49438 2.533108,-2.49438 1.556758,0 2.861599,1.20227 2.861599,2.63665 0,0.75224 0.28343,1.3321 0.65112,1.3321 0.18145,0 1.50625,-0.5497 2.94398,-1.22156 3.31678,-1.54994 6.5977,-2.38155 10.88185,-2.75822 7.54749,-0.66359 18.87423,0.83276 26.00627,3.43563 2.40745,0.87862 5.24008,1.44186 5.92653,1.17845 0.59852,-0.22967 0.52174,-1.04945 -0.15756,-1.68232 -0.44502,-0.4146 -0.93498,-0.53948 -2.11667,-0.53948 -1.64376,0 -2.00982,-0.36272 -0.82187,-0.81438 0.7729,-0.29386 2.50299,-0.10132 3.43354,0.38212 0.31757,0.16498 0.94339,0.80599 1.39072,1.42445 0.95885,1.32569 1.63147,1.43267 2.95369,0.46978 1.58458,-1.15396 1.91875,-1.2174 3.49478,-0.66347 2.53378,0.89055 9.44661,1.14022 26.44226,0.95502 14.44319,-0.1574 15.27947,-0.14115 15.27564,0.29676 -0.002,0.25479 -0.0915,0.58655 -0.19844,0.73724 -0.13115,0.18485 -6.58508,0.27092 -19.84003,0.26458 l -19.64565,-0.009 -1.72458,0.92604 -1.72459,0.92605 -1.64852,-0.86737 c -0.90668,-0.47705 -1.91538,-0.864 -2.24154,-0.8599 -0.32616,0.004 -1.13752,0.4231 -1.80303,0.93109 -1.71364,1.30806 -3.70628,1.83224 -6.19233,1.62894 -2.50983,-0.20523 -3.93299,-0.64384 -7.41891,-2.28645 -1.52797,-0.71999 -3.19484,-1.3423 -3.70416,-1.38291 l -0.92605,-0.0738 v 1.75759 c 0,1.38525 -0.1121,1.88214 -0.52916,2.34547 -0.74297,0.8254 -1.58519,1.09439 -2.42583,0.77478 -1.00737,-0.383 -1.39258,-1.01181 -1.40222,-2.28895 -0.007,-0.86908 0.1668,-1.31483 0.78534,-2.0193 0.98298,-1.11955 0.99671,-1.58283 0.0662,-2.2309 -1.6758,-1.16705 -4.17141,-1.44062 -6.58995,-0.72239 -1.33966,0.39784 -3.07732,1.40605 -3.11377,1.80665 -0.0109,0.11919 0.62611,0.43534 1.41546,0.70256 1.68736,0.57123 2.38727,1.35875 2.39539,2.69524 0.005,0.76084 -0.16876,1.11563 -0.80816,1.65365 -1.11141,0.93519 -3.41929,0.93195 -3.41929,-0.005 0,-0.38929 0.22729,-0.45262 1.36208,-0.3795 0.46436,0.0299 0.84354,-0.15891 1.12448,-0.56 0.58073,-0.82912 0.53218,-1.35174 -0.1885,-2.02878 -0.99503,-0.93478 -2.31794,-0.74661 -7.2066,1.02503 -4.83303,1.75148 -8.56053,2.72923 -12.01785,3.15237 -3.89227,0.47637 -5.543143,0.36582 -7.992536,-0.53521 -2.770939,-1.0193 -3.551118,-1.47887 -7.624821,-4.49145 -1.81901,-1.34519 -4.171704,-2.85968 -5.228209,-3.36553 -1.72058,-0.8238 -2.100574,-0.90828 -3.643564,-0.81003 -2.71427,0.17283 -3.511632,1.35974 -1.6516,2.45849 0.460412,0.27197 1.713905,1.30747 2.785541,2.3011 1.489533,1.38111 2.131674,1.80661 2.726465,1.80661 0.743866,0 0.778034,-0.0515 0.778034,-1.17173 0,-1.37304 0.499338,-2.00327 1.587196,-2.00327 0.508907,0 0.94293,0.23758 1.329211,0.7276 1.102849,1.39904 0.218826,3.61272 -1.783429,4.46587 -1.252041,0.53349 -2.483308,0.44727 -4.868022,-0.34089 l -2.129073,-0.70366 -1.176062,0.57137 c -1.448035,0.70351 -2.28255,0.71156 -3.770484,0.0364 -1.434296,-0.65083 -1.66157,-0.65031 -2.949472,0.007 -2.575727,1.31404 -5.048147,1.22954 -6.436879,-0.21998 -1.380373,-1.4408 -1.08735,-3.99273 0.504336,-4.39222 1.170866,-0.29387 1.921991,0.41209 2.017101,1.89581 0.06896,1.07575 0.167876,1.27263 0.67564,1.34475 0.828662,0.11769 1.908387,-0.72514 2.986532,-2.3313 0.62026,-0.92402 1.322784,-1.57413 2.173301,-2.01114 0.691224,-0.35517 1.256771,-0.76007 1.256771,-0.89978 0,-0.79166 -3.471506,-1.75026 -5.208392,-1.43822 -1.408234,0.253 -3.423666,1.27075 -4.981194,2.51539 -5.631035,4.49984 -7.865295,5.8257 -10.901183,6.46899 -1.959805,0.41528 -3.38097,0.44218 -5.660167,0.10713 z m 5.829236,-1.27245 c 0.353012,-0.0987 0.690356,-0.32491 0.749652,-0.50279 0.0787,-0.23608 -0.439306,-0.32344 -1.917928,-0.32344 h -2.025739 l -5.09137,-2.61738 c -2.800252,-1.43955 -6.036013,-2.92726 -7.190578,-3.30602 -3.231267,-1.06002 -7.88815,-1.56696 -8.843875,-0.96273 -0.570675,0.36079 -0.14137,0.66912 1.849871,1.32857 0.945885,0.31325 3.803385,1.49934 6.35,2.63576 3.905292,1.74272 7.929904,3.24006 10.186458,3.78983 0.79674,0.19411 5.200314,0.16309 5.933509,-0.0418 z m 52.936283,-0.4425 c 1.38245,-0.3703 4.89479,-1.72563 7.80521,-3.01185 2.91042,-1.28622 5.85721,-2.58359 6.54844,-2.88306 1.29587,-0.56142 1.63017,-1.21381 0.763,-1.48904 -0.77392,-0.24563 -5.04827,0.32281 -6.83304,0.90871 -2.69552,0.8849 -5.81199,2.28035 -8.53133,3.82006 -1.42002,0.80402 -3.135825,1.69932 -3.812899,1.98954 -1.182931,0.50707 -1.434184,0.78433 -1.054658,1.16386 0.373946,0.37395 2.707854,0.14663 5.115277,-0.49822 z m -87.563963,-0.79641 c 0.48246,-0.58133 0.01709,-1.83627 -0.68095,-1.83627 -0.414684,0 -0.511122,0.16049 -0.466341,0.77611 0.10855,1.49234 0.493442,1.848 1.147291,1.06016 z m 114.763133,-0.1694 c 0.46081,-0.46081 0.40202,-2.04792 -0.0828,-2.23395 -0.61824,-0.23724 -1.18725,0.40936 -1.18725,1.34913 0,1.20217 0.56147,1.59335 1.27,0.88482 z m 17.67657,-0.60355 c 0.64985,-0.27152 0.91051,-0.53408 0.84873,-0.85489 -0.0682,-0.35441 -0.61602,-0.56322 -2.33546,-0.89028 -1.23547,-0.235 -3.61552,-0.90596 -5.28901,-1.49103 -3.57353,-1.24934 -7.03911,-2.07905 -9.74565,-2.33325 -1.90879,-0.17928 -1.939,-0.1725 -1.85209,0.4156 0.14299,0.96743 1.23435,1.52913 3.5734,1.83915 1.18916,0.15761 3.15369,0.63313 4.36562,1.05672 1.21193,0.42358 3.39414,1.19202 4.84934,1.70764 2.89125,1.02445 4.15289,1.14877 5.58512,0.55034 z M 0.01114698,107.53475 c 0.89817575,-0.34009 2.64507922,-1.00069 3.88200632,-1.468 3.3385099,-1.26129 5.1098768,-1.57517 7.0898387,-1.25631 1.403617,0.22604 1.811279,0.19511 2.697927,-0.20471 1.213929,-0.5474 1.980546,-1.30164 1.731912,-1.70394 -0.107627,-0.17414 -1.423027,-0.28125 -3.454119,-0.28125 -2.8754285,0 -3.7143879,0.11194 -6.7974055,0.90701 -1.934411,0.49886 -4.31808992,1.2112 -5.29706413,1.58297 -0.97897417,0.37178 -2.64584917,0.86875 -3.70416667,1.10438 -2.8719648,0.63943 -3.318211,1.32149 -1.2627557,1.93005 1.2397079,0.36705 3.1279835,0.14173 5.11382698,-0.6102 z m -12.76934998,-0.4256 c 0.649613,-0.34767 0.6502,-0.69174 0.0019,-1.03877 -0.659228,-0.35277 -1.342162,-0.0855 -1.342162,0.52517 0,0.39859 0.233296,0.63865 0.744998,0.7666 0.04595,0.0115 0.313838,-0.10236 0.595312,-0.253 z m 167.640633,-0.40809 c 0.0881,-0.22956 -0.031,-0.60856 -0.26465,-0.84221 -0.39004,-0.39003 -0.46736,-0.38632 -0.94438,0.0454 -0.28576,0.2586 -0.45532,0.6376 -0.3768,0.84221 0.19429,0.50633 1.38722,0.4722 1.58583,-0.0454 z"
         id="path68" />
      <path
         style="fill:#c8ab37;stroke-width:0.264583"
         d="m 94.11607,111.6953 c -1.186458,-0.2123 -4.338254,-1.41813 -5.55625,-2.12574 -0.654844,-0.38043 -2.619375,-1.75615 -4.365625,-3.05715 -4.141563,-3.08555 -6.584193,-4.28309 -8.742886,-4.28634 -1.771857,-0.003 -3.031072,0.59021 -3.031072,1.42711 0,0.29085 0.62068,0.95169 1.521354,1.6198 0.836745,0.62068 2.072103,1.69384 2.74524,2.38479 1.180293,1.21153 2.526681,1.82519 3.153952,1.43751 0.179517,-0.11095 0.224724,-0.56369 0.118854,-1.19033 -0.137801,-0.81562 -0.06462,-1.11752 0.378206,-1.56035 0.690435,-0.69044 1.091538,-0.69058 1.968587,-8e-4 0.555662,0.43719 0.69714,0.77426 0.69714,1.66103 0,2.04944 -1.323541,3.08237 -3.94957,3.08237 -1.040683,0 -2.183961,-0.22183 -3.29124,-0.63861 l -1.696638,-0.63861 -1.378381,0.63861 c -1.704552,0.78973 -1.763726,0.78932 -3.604977,-0.025 l -1.500479,-0.66358 -1.483629,0.68765 c -3.847733,1.78339 -7.244329,0.71206 -7.244329,-2.28497 0,-1.27817 0.659421,-2.1026 1.681768,-2.1026 1.110824,0 1.632744,0.6704 1.434666,1.84281 -0.119163,0.70532 -0.0539,1.06917 0.234725,1.30871 0.813282,0.67497 2.377644,-0.35581 3.924158,-2.58567 0.514635,-0.74204 1.213543,-1.33674 1.957953,-1.66603 2.416159,-1.06878 0.759376,-2.45705 -2.943402,-2.46637 -2.701327,-0.007 -3.696237,0.46492 -7.63782,3.62132 -3.590536,2.87528 -5.453221,4.00193 -8.07939,4.88684 -1.83673,0.6189 -2.271991,0.66488 -5.052582,0.53376 -3.507568,-0.1654 -7.218518,-1.07781 -14.154504,-3.48018 -4.463899,-1.54612 -5.937158,-1.76187 -7.282043,-1.06641 -0.886587,0.45848 -1.317619,1.13505 -1.317619,2.06823 0,0.81387 0.559149,1.03935 2.030312,0.81873 1.268936,-0.19029 1.448109,0.061 0.594389,0.8336 -0.742903,0.67231 -2.403621,0.65911 -3.163099,-0.0251 -0.89666,-0.80785 -1.10095,-1.60668 -0.672889,-2.63118 0.414573,-0.99221 0.909389,-1.32414 2.819575,-1.8914 0.943853,-0.2803 1.302128,-0.51977 1.302128,-0.87034 0,-0.72143 -2.392092,-1.64407 -4.689586,-1.80878 -1.701212,-0.12197 -2.073346,-0.0578 -3.383227,0.58302 -0.809471,0.39604 -1.648055,0.98912 -1.863518,1.31796 -0.35237,0.53779 -0.33867,0.71489 0.136271,1.76169 0.899541,1.98265 0.556133,3.34312 -0.978946,3.87825 -1.033856,0.36041 -1.845799,-0.0253 -2.370762,-1.12613 -0.44546,-0.93414 -0.367879,-1.78318 0.307986,-3.37058 0.148595,-0.34901 0.0172,-0.52717 -0.547055,-0.74169 -1.090348,-0.41455 -2.5005957,-0.0809 -5.6395012,1.33414 -7.1647394,3.22997 -11.3371445,3.4639 -13.5120222,0.75756 -0.8248808,-1.02645 -0.9207923,-1.07107 -1.9567472,-0.91014 -0.5991434,0.0931 -1.6933754,0.58201 -2.4316294,1.08653 -0.738256,0.50452 -1.472464,0.91731 -1.631579,0.91731 -0.159113,0 -0.523529,-0.32154 -0.809811,-0.71454 -0.453707,-0.62285 -0.770641,-0.7396 -2.469462,-0.90969 -1.071925,-0.10732 -10.372624,-0.20249 -20.668223,-0.21149 -11.163699,-0.01 -18.719271,-0.1143 -18.719271,-0.25902 0,-0.94885 9.500064,-1.38052 24.870833,-1.13009 6.475677,0.10551 12.808268,0.13011 14.072423,0.0547 2.050767,-0.12237 2.380229,-0.21556 3.057187,-0.86475 0.935246,-0.89689 1.141203,-0.90057 2.436309,-0.0435 0.568558,0.37625 1.488739,0.74152 2.044848,0.81172 0.9459838,0.1194 1.1016302,0.0328 2.4164983,-1.34462 1.3844799,-1.45033 2.3111989,-1.94285 3.091934,-1.64325 0.7288345,0.27968 0.4132739,0.96084 -0.6404477,1.38246 -1.0860829,0.43456 -1.5453678,1.07172 -1.0962614,1.52083 0.3756792,0.37568 2.8319704,-0.21866 5.3397864,-1.29205 2.6005208,-1.11307 5.7523486,-2.11252 7.786288,-2.46904 0.8974138,-0.15731 6.3028694,-0.29283 12.5560194,-0.31479 12.645736,-0.0444 12.713962,-0.0348 17.506428,2.46188 2.942114,1.53274 3.049225,1.51721 3.627909,-0.52592 0.416928,-1.47202 1.26039,-2.03504 2.749478,-1.83531 1.472534,0.1975 2.309935,1.14035 2.309935,2.60079 0,1.25562 -0.523875,1.29038 -0.843741,0.056 -0.291335,-1.12429 -1.052811,-1.7456 -1.883799,-1.53704 -1.523851,0.38247 -2.048256,2.15396 -1.048535,3.54208 0.715467,0.99343 3.67343,2.40044 5.426924,2.58141 1.191368,0.12296 1.709856,0.0406 2.670021,-0.42422 2.147512,-1.0396 2.676242,-2.74548 0.812033,-2.61993 -0.768837,0.0518 -1.089263,-0.0825 -1.592495,-0.66759 -0.797507,-0.92716 -0.795388,-1.53944 0.0085,-2.47408 0.546468,-0.63531 0.835752,-0.74236 2.006079,-0.74236 1.199782,0 1.458817,0.10217 2.111764,0.83294 0.45272,0.50669 0.814519,1.28396 0.923665,1.98438 0.382604,2.45523 0.554929,2.54733 2.173687,1.16174 5.071758,-4.34124 9.065591,-5.54549 12.476459,-3.76199 1.677964,0.87738 2.103776,0.88148 3.720981,0.0359 1.69264,-0.88506 2.85464,-1.04899 4.5695,-0.64465 1.937996,0.45694 4.084582,1.57652 6.603256,3.44401 1.170472,0.86785 2.294147,1.57791 2.497053,1.57791 0.202909,0 0.436137,-0.32742 0.518284,-0.72761 0.620911,-3.0247 1.343242,-3.9026 3.211031,-3.9026 1.010897,0 1.307772,0.13067 1.963061,0.86407 1.466024,1.64077 0.664511,3.0636 -1.641965,2.9148 -1.005319,-0.0649 -1.168373,-0.001 -1.237631,0.48412 -0.103621,0.72594 1.132906,2.18886 2.241727,2.65215 3.523663,1.47228 9.203684,-1.47226 8.629915,-4.47377 -0.192455,-1.00677 -1.293233,-1.85522 -1.950548,-1.50344 -0.272153,0.14565 -0.620805,0.50022 -0.774782,0.78792 -0.354028,0.66152 -1.31967,0.70016 -1.31967,0.0528 0,-1.44629 1.976144,-2.46245 3.527888,-1.81409 1.033601,0.43187 1.366031,0.90866 1.635681,2.34598 0.31302,1.66858 0.56578,1.68236 3.72568,0.20309 5.1555,-2.41348 9.23405,-3.08217 17.16999,-2.81507 2.76611,0.0931 5.92227,0.33284 7.01367,0.53277 l 1.98438,0.36349 -1.50574,0.0333 c -1.64322,0.0363 -1.97641,0.27055 -1.54136,1.08343 0.38914,0.72713 1.63984,1.33113 2.75635,1.33113 1.56692,0 3.55399,0.53229 8.02645,2.15012 3.3022,1.19451 4.63663,1.55404 5.76784,1.55404 1.43815,0 3.03293,-0.55686 3.03293,-1.05903 0,-0.47939 -1.19719,-1.02683 -2.64583,-1.20986 -0.80037,-0.10112 -2.70537,-0.62446 -4.23334,-1.16297 -1.52797,-0.53852 -3.5835,-1.19541 -4.56786,-1.45976 -0.98435,-0.26435 -1.74092,-0.52945 -1.68126,-0.58911 0.19613,-0.19613 4.60811,0.95416 7.86315,2.05008 2.44108,0.82188 3.51642,1.0568 4.56044,0.99629 1.14114,-0.0661 1.37887,-0.16793 1.44331,-0.61803 0.0449,-0.31375 -0.21309,-0.81114 -0.61759,-1.19063 -0.57654,-0.54088 -0.9405,-0.64585 -2.13926,-0.61699 -1.69016,0.0407 -1.86862,-0.51188 -0.21027,-0.65103 1.75502,-0.14727 2.91359,0.36296 3.82192,1.68317 0.68582,0.99681 0.95016,1.18204 1.68689,1.18204 0.55082,0 1.27852,-0.2933 1.96938,-0.79375 1.23806,-0.89685 1.69968,-0.95852 3.02614,-0.40429 1.88953,0.7895 6.6711,0.96758 24.19705,0.90119 9.49263,-0.036 17.33187,0.007 17.42051,0.0958 0.0887,0.0887 0.0922,0.37851 0.008,0.64414 -0.14682,0.46268 -0.97963,0.48005 -19.83473,0.4135 l -19.68147,-0.0695 -1.51526,0.79707 c -0.83339,0.43839 -1.76143,0.79707 -2.06231,0.79707 -0.30087,0 -1.17995,-0.35719 -1.95349,-0.79375 -1.75897,-0.9927 -2.22814,-0.9924 -3.36087,0.002 -1.54981,1.36075 -3.07547,1.87702 -5.53,1.87132 -2.77346,-0.006 -4.66151,-0.50904 -8.13042,-2.16431 -1.52599,-0.72817 -3.28216,-1.39351 -3.9026,-1.47856 l -1.12809,-0.15458 v 1.88805 c 0,1.52716 -0.0999,1.9879 -0.52243,2.41048 -1.1331,1.1331 -2.94797,0.92061 -3.45163,-0.40412 -0.4571,-1.20226 -0.29008,-1.93477 0.68797,-3.01736 1.09734,-1.21462 1.05482,-1.71487 -0.21924,-2.57974 -2.06067,-1.39885 -5.537,-1.33993 -8.27475,0.14023 -1.54677,0.83626 -1.83831,1.53791 -0.73906,1.77873 2.27708,0.49885 3.11441,1.25581 3.11441,2.81545 0,1.50083 -0.80201,2.11902 -2.61214,2.01343 -1.54753,-0.0903 -1.70463,-0.56604 -0.22899,-0.69346 1.29459,-0.11178 1.66253,-0.44704 1.66253,-1.51483 0,-0.6386 -0.19624,-1.02903 -0.7276,-1.4476 -1.00941,-0.79515 -2.27206,-0.58503 -6.97938,1.16147 -5.96995,2.21496 -9.97846,3.12691 -15.047183,3.42328 -1.091406,0.0638 -2.282031,0.0628 -2.645833,-0.002 z m -45.424974,-1.38324 c 0.390716,-0.14855 0.710391,-0.44658 0.710391,-0.6623 0,-0.31819 -0.39591,-0.38183 -2.098006,-0.33727 l -2.098006,0.0549 -5.641056,-2.83996 c -6.762904,-3.40474 -8.631045,-3.99242 -12.778762,-4.01994 -2.467244,-0.0164 -2.917071,0.0448 -2.988754,0.40633 -0.0637,0.32124 0.499372,0.62944 2.296488,1.25699 1.309478,0.45727 3.906949,1.53044 5.772153,2.38482 4.298145,1.96881 7.89528,3.31682 10.259901,3.84483 1.969468,0.43978 5.294148,0.395 6.565651,-0.0884 z m 52.039554,-0.17667 c 3.86184,-0.95617 16.27188,-6.40199 16.27188,-7.14049 0,-0.4319 -0.22697,-0.51844 -1.53827,-0.58651 -3.47985,-0.18065 -8.87664,1.56498 -14.46902,4.6801 -1.527972,0.85112 -3.343675,1.79467 -4.034899,2.09677 -1.379958,0.60311 -1.571699,0.99866 -0.661458,1.36453 0.925999,0.37221 1.454303,0.32281 4.431767,-0.4144 z m -86.835188,-1.59685 c 0.08406,-0.86168 -0.552482,-1.79051 -1.103331,-1.60996 -0.42653,0.1398 -0.530892,1.73666 -0.143965,2.20288 0.520567,0.62725 1.157819,0.32432 1.247296,-0.59292 z m 114.871718,0.18481 c 0.67695,-1.2649 0.10668,-2.52518 -0.95961,-2.12073 -1.17336,0.44507 -1.14128,2.6325 0.0386,2.6325 0.36899,0 0.76482,-0.21995 0.921,-0.51177 z M 0.45357,107.52853 c 0.9458854,-0.40148 2.9104167,-1.16401 4.365625,-1.6945 2.5097925,-0.91494 2.795479,-0.96152 5.55625,-0.90582 2.593628,0.0523 3.025614,-0.006 3.96875,-0.53759 0.7878,-0.44387 1.058333,-0.76322 1.058333,-1.24934 0,-0.64661 -0.02647,-0.65377 -2.692214,-0.72822 -3.2410749,-0.0905 -6.5930361,0.52817 -11.462994,2.11575 -1.81901042,0.59299 -4.2597917,1.32895 -5.4239583,1.63546 -1.7411515,0.45844 -2.1166667,0.6498 -2.1166667,1.07866 0,1.40978 3.7266721,1.56753 6.746875,0.2856 z m -12.748969,-0.86374 c 0.110556,-0.77748 -1.112824,-1.14377 -1.736632,-0.51996 -0.350587,0.35059 -0.361284,0.48612 -0.0664,0.84143 0.515231,0.62082 1.699053,0.40974 1.803032,-0.32147 z m 167.148919,0.33687 c 0.41096,-0.30517 0.45506,-0.477 0.22065,-0.8599 -0.5735,-0.93679 -1.95602,-0.61317 -1.95602,0.45787 0,0.78117 0.93355,0.99744 1.73537,0.40203 z"
         id="path66" />
      <path
         style="fill:#c8ab37;stroke-width:0.264583"
         d="m 42.660181,111.32147 c -2.664388,-0.38801 -5.848509,-1.26223 -11.546234,-3.17009 -3.000386,-1.00467 -5.857886,-1.8303 -6.35,-1.83472 -0.736031,-0.007 -0.812615,-0.0559 -0.431731,-0.27773 1.089869,-0.63479 0.275376,-1.53776 -2.108319,-2.33733 -2.757559,-0.92499 -4.901335,-0.61418 -7.237463,1.04929 -0.873009,0.62164 -0.985464,1.37346 -0.379285,2.53576 0.60299,1.15618 0.504266,2.39593 -0.250929,3.15112 -0.83271,0.83271 -1.582361,0.82294 -2.437069,-0.0318 -0.617244,-0.61724 -0.664456,-0.80975 -0.50288,-2.05052 0.375835,-2.88611 0.464709,-2.68263 -1.210157,-2.77072 -1.2962887,-0.0682 -1.84654,0.0808 -4.1901848,1.13407 -4.2809054,1.924 -6.47658722,2.58566 -9.0298958,2.72114 -2.6605044,0.14116 -3.7670554,-0.24169 -4.8671241,-1.68395 -0.5918597,-0.77597 -0.843497,-0.90154 -1.7991164,-0.8978 -0.7084479,0.003 -1.4944939,0.2392 -2.1693479,0.65249 -2.194039,1.34364 -2.266453,1.36367 -2.754016,0.76155 -0.243591,-0.30082 -0.698027,-0.68349 -1.009857,-0.85038 -0.410633,-0.21976 -5.594884,-0.30343 -18.801796,-0.30343 -18.170746,0 -22.223876,-0.11277 -20.95275,-0.58299 1.536941,-0.56855 8.645354,-0.77506 23.87483,-0.69361 l 16.075162,0.086 0.805436,-0.8599 c 0.442989,-0.47294 0.8548,-0.85989 0.91513,-0.85989 0.06033,0 0.670629,0.35573 1.35622,0.79052 0.685591,0.43479 1.66646,0.86931 2.179706,0.96559 0.8603567,0.1614 1.0137833,0.0842 1.966069,-0.98896 1.2509394,-1.40977 2.2309957,-2.086 3.0265952,-2.08833 0.9622843,-0.003 0.6829769,0.67731 -0.4630209,1.12746 -0.8411845,0.33043 -1.0583333,0.55129 -1.0583333,1.07643 0,0.36338 0.1467353,0.7096 0.3260778,0.76938 0.6481392,0.21605 2.7725238,-0.36154 6.01983703,-1.6367 6.13465037,-2.40896 6.21863967,-2.42017 18.76806217,-2.50584 12.789165,-0.0873 13.414121,-0.008 17.839349,2.24996 1.432401,0.73104 2.856026,1.29257 3.163612,1.24784 0.399426,-0.0581 0.688806,-0.44438 1.012614,-1.35177 0.636246,-1.78293 0.914593,-2.03683 2.232882,-2.03683 1.439286,0 2.402345,0.79461 2.64555,2.18281 0.202594,1.1564 -0.259249,1.38334 -0.538456,0.26458 -0.269809,-1.08108 -0.912095,-1.65364 -1.855039,-1.65364 -1.022836,0 -1.989489,0.93194 -1.989489,1.91805 0,1.80386 1.30959,3.08472 4.201438,4.10927 1.452594,0.51464 1.570982,0.59661 0.693354,0.48005 -0.582084,-0.0773 -1.951302,-0.59427 -3.042709,-1.14883 -1.091406,-0.55455 -3.422851,-1.74367 -5.180986,-2.64249 -3.826639,-1.95632 -6.947204,-2.91116 -10.27961,-3.14541 -3.025714,-0.21268 -3.920953,-0.037 -3.805018,0.74674 0.06594,0.44573 0.524997,0.71282 2.199989,1.27997 1.164167,0.39419 4.259792,1.67126 6.879167,2.83793 6.529086,2.90806 8.589603,3.53991 12.038542,3.69156 3.442671,0.15138 4.918302,-0.23426 4.852384,-1.26814 -0.03179,-0.49864 0.147619,-0.74924 0.716767,-1.00117 1.020604,-0.45176 2.005981,-2.03046 1.584409,-2.53842 -0.202165,-0.24359 -0.60793,-0.3213 -1.187034,-0.22733 -0.669512,0.10865 -1.013508,0.009 -1.438826,-0.41617 -1.284681,-1.28468 -0.206771,-3.20478 1.799109,-3.20478 1.721932,0 2.715175,1.14085 3.073487,3.53026 0.105103,0.70088 0.351073,1.33571 0.5466,1.41074 0.195525,0.075 1.341446,-0.65504 2.546488,-1.62238 3.108296,-2.49516 5.608632,-3.68465 7.99248,-3.80228 1.677115,-0.0828 2.03218,-0.007 3.41965,0.72483 0.851522,0.44944 1.722226,0.81716 1.934901,0.81716 0.212672,0 1.156448,-0.37125 2.09728,-0.825 1.471263,-0.70958 1.92242,-0.80753 3.224475,-0.70004 2.091155,0.17263 4.153461,1.0283 6.403729,2.65698 2.704578,1.95749 3.804483,2.57574 4.175021,2.34674 0.176898,-0.10933 0.441521,-0.84746 0.58805,-1.64029 0.490852,-2.65591 2.673866,-3.73317 4.481978,-2.21174 0.870209,0.73223 1.101775,1.92185 0.475303,2.44178 -0.186314,0.15463 -0.989986,0.31803 -1.785938,0.36313 -1.416788,0.0803 -1.446027,0.0981 -1.391845,0.84998 0.07207,1.00023 1.197276,2.15358 2.637697,2.70368 3.228771,1.23308 8.551751,-1.32308 8.551751,-4.10666 0,-1.23748 -0.835895,-2.40772 -1.719818,-2.40772 -0.388062,0 -0.875993,0.32316 -1.293606,0.85677 -0.784077,1.00187 -1.417759,0.76588 -0.873712,-0.32537 1.030435,-2.06685 4.175073,-1.55893 4.561863,0.73683 0.29105,1.7275 0.39148,1.90677 1.06818,1.90677 0.35691,0 1.68833,-0.52024 2.95873,-1.15608 2.15178,-1.07697 4.83272,-2.02974 5.65784,-2.01071 0.19588,0.005 -0.83448,0.46176 -2.28969,1.01609 -1.4552,0.55434 -4.78895,2.10738 -7.40833,3.45122 -3.96492,2.03415 -4.762498,2.53971 -4.762498,3.0188 0,0.51495 0.159922,0.58381 1.520629,0.6548 2.316096,0.12082 5.187339,-0.77697 12.105409,-3.78517 3.41974,-1.48701 6.48573,-2.78763 6.8133,-2.89027 0.89352,-0.27995 1.22492,-1.07058 0.678,-1.61751 -0.37073,-0.37072 -0.80197,-0.42088 -2.57916,-0.29995 -1.84079,0.12525 -1.97041,0.10834 -0.94339,-0.12307 1.43019,-0.32225 9.7297,-0.40486 12.23698,-0.12182 1.75845,0.19852 1.78594,0.21371 1.78594,0.98694 0,1.11788 1.06899,2.02217 2.60491,2.20357 2.79582,0.3302 4.57755,0.786 7.94323,2.03202 1.9501,0.72196 4.1068,1.44218 4.79268,1.6005 1.50146,0.34658 3.47297,0.0948 4.26216,-0.5442 0.48147,-0.38986 0.52671,-0.55796 0.27619,-1.02606 -0.25155,-0.47003 -0.21868,-0.58551 0.20492,-0.71995 1.04559,-0.33186 0.89246,-1.53926 -0.30126,-2.37538 -0.3267,-0.22882 -1.17458,-0.41968 -1.91618,-0.43133 -1.12157,-0.0176 -1.22645,-0.0588 -0.66873,-0.26239 0.43203,-0.15774 1.11335,-0.12755 1.9643,0.087 1.07631,0.27142 1.44933,0.53556 2.14536,1.51917 0.76448,1.08035 0.94,1.1888 1.89498,1.17099 0.7116,-0.0133 1.35306,-0.24892 1.98065,-0.72761 1.05723,-0.80639 1.72317,-0.86675 3.34189,-0.30294 0.62741,0.21852 2.83006,0.51268 4.8948,0.65368 4.10314,0.2802 23.62439,0.3019 31.36273,0.0349 2.66998,-0.0921 4.89666,-0.0989 4.94818,-0.015 0.0515,0.0839 0.0334,0.38303 -0.0403,0.66476 -0.1271,0.48603 -0.29911,0.50156 -3.36067,0.30343 -1.7747,-0.11484 -10.73648,-0.17586 -19.91506,-0.13559 l -16.68834,0.0732 -1.03874,0.67998 c -1.71658,1.1237 -1.87966,1.12774 -3.96317,0.0983 -2.15159,-1.06312 -2.12678,-1.06632 -4.24072,0.54728 -2.80346,2.13993 -6.87344,1.87902 -12.59249,-0.80724 -2.04474,-0.96042 -3.53788,-1.49548 -4.26249,-1.52743 l -1.1153,-0.0492 -0.0215,1.4552 c -0.0118,0.80037 -0.0416,1.66357 -0.0661,1.91823 -0.1363,1.41427 -2.53092,2.08403 -3.33691,0.93332 -0.6549,-0.93501 -0.5282,-2.38592 0.27387,-3.13616 1.56277,-1.46177 1.39684,-2.19991 -0.73312,-3.26131 -2.39043,-1.19121 -6.31623,-0.78583 -8.67831,0.89612 -1.00779,0.71762 -1.07883,1.59147 -0.12936,1.59147 2.40524,0 4.06206,2.23212 2.89431,3.89932 -0.48088,0.68654 -2.04205,1.04167 -2.854,0.6492 -0.51838,-0.25056 -0.47566,-0.28122 0.41421,-0.29728 1.84012,-0.0332 2.62004,-1.60376 1.50215,-3.02493 -0.77512,-0.9854 -2.5756,-0.9443 -5.53705,0.1264 -8.32568,3.01013 -11.69728,3.84113 -16.667323,4.10801 -2.647752,0.14218 -2.891904,0.10908 -5.149075,-0.69804 -2.661457,-0.95168 -3.796093,-1.62616 -7.957,-4.72998 -3.676457,-2.74245 -5.776888,-3.80407 -7.818606,-3.95175 -0.850871,-0.0615 -1.852065,-0.0353 -2.224871,0.0582 -0.807233,0.20261 -1.722692,1.0576 -1.722692,1.60892 0,0.21667 0.803672,0.98379 1.785938,1.70473 0.982265,0.72093 2.221899,1.78111 2.754741,2.35595 1.103974,1.191 2.672736,1.85738 3.248205,1.37978 0.242625,-0.20136 0.314333,-0.63982 0.219845,-1.34428 -0.244346,-1.82174 1.193728,-2.54185 2.290818,-1.14713 0.708551,0.90078 0.693126,1.65533 -0.05662,2.76946 -1.134708,1.68621 -3.31063,1.91756 -6.741723,0.71681 l -1.658168,-0.5803 -1.193181,0.5797 c -1.476848,0.71751 -2.231879,0.72822 -3.560275,0.0505 -1.329455,-0.67823 -1.597441,-0.66735 -3.634444,0.14758 -3.640672,1.4565 -6.684306,0.36577 -6.684306,-2.39542 0,-0.68807 1.040865,-1.98549 1.592868,-1.98549 0.902372,0 1.339583,0.5745 1.282115,1.6847 -0.07299,1.41003 0.138007,1.75488 1.073701,1.75488 0.947893,0 1.890384,-0.74745 3.231388,-2.5627 0.740095,-1.00183 1.424516,-1.59739 2.235014,-1.94481 0.642536,-0.27542 1.168247,-0.67508 1.168247,-0.88814 0,-1.04899 -1.945823,-1.85746 -4.503481,-1.87115 -2.134769,-0.0114 -4.289951,0.97689 -6.873602,3.15209 -2.608369,2.196 -6.127422,4.52258 -7.770374,5.13729 -1.527992,0.57169 -4.312367,1.11228 -5.458793,1.05983 -0.363802,-0.0166 -1.373328,-0.13394 -2.243389,-0.26064 z m -28.701838,-1.96734 c 0.247306,-0.29798 0.274256,-0.67787 0.09854,-1.38906 -0.21187,-0.85754 -0.340267,-0.97891 -1.035606,-0.97891 -0.770263,0 -0.792141,0.0346 -0.739362,1.16775 0.07038,1.51121 0.915927,2.11657 1.676428,1.20022 z m 114.666957,-0.2702 c 0.55717,-0.55718 0.55861,-2.45644 0.002,-2.67002 -0.22756,-0.0873 -0.70381,-0.0266 -1.05833,0.13492 -0.53942,0.24578 -0.64459,0.48168 -0.64459,1.44589 0,0.63372 0.0794,1.23158 0.17639,1.32859 0.31177,0.31178 1.09659,0.18854 1.52451,-0.23938 z M 0.95154494,107.49584 c 5.13384006,-2.13072 5.98390136,-2.34309 9.42390006,-2.35429 3.019544,-0.01 3.230869,-0.0466 4.316074,-0.7503 0.860552,-0.55806 1.120733,-0.88293 1.058333,-1.32149 -0.07972,-0.56031 -0.208142,-0.58429 -3.522324,-0.65774 -4.0252329,-0.0892 -5.5328049,0.18375 -11.377083,2.05986 -2.1828125,0.70072 -4.5841311,1.41382 -5.3362622,1.58465 -1.8090541,0.4109 -2.4333623,0.87133 -2.0466976,1.50945 0.8509926,1.4044 4.0023944,1.37487 7.48405974,-0.0701 z M -12.396867,107.29673 c 0.33033,-0.24154 0.424323,-0.5259 0.30162,-0.91251 -0.350091,-1.10304 -2.26785,-1.07117 -2.26785,0.0377 0,1.12132 1.012844,1.57195 1.96623,0.87482 z m 167.585847,-0.65586 c 0.19025,-1.34202 -1.21506,-1.85433 -1.96153,-0.71508 -0.64421,0.98319 -0.31683,1.50626 0.88076,1.4072 0.80692,-0.0667 1.01061,-0.19719 1.08077,-0.69212 z m -133.701035,4.12676 c -1.436931,-0.82407 -1.593019,-2.26723 -0.368893,-3.41073 0.451951,-0.42219 0.977996,-0.76761 1.168985,-0.76761 0.19099,0 0.565351,-0.0671 0.831914,-0.14914 0.266565,-0.082 0.174296,0.0319 -0.205037,0.25318 -1.468014,0.8563 -2.060728,2.78396 -1.026239,3.3376 0.370552,0.19832 0.829741,0.20334 1.506477,0.0165 1.211511,-0.33452 1.459767,-0.12863 0.64317,0.53339 -0.69895,0.56665 -1.753399,0.64389 -2.550377,0.18683 z m -78.052083,-3.91376 c 0.08994,-0.14552 0.216026,-0.26458 0.280198,-0.26458 0.06417,0 0.116677,0.11906 0.116677,0.26458 0,0.14552 -0.12609,0.26458 -0.280199,0.26458 -0.154109,0 -0.206613,-0.11906 -0.116676,-0.26458 z m 167.547398,-4.40856 c 0.1819,-0.0734 0.47955,-0.0734 0.66146,0 0.1819,0.0734 0.0331,0.13345 -0.33073,0.13345 -0.36381,0 -0.51263,-0.0601 -0.33073,-0.13345 z"
         id="path64" />
    </g>
  </g>
</svg>
